<svg version="1.1" xmlns="http://www.w3.org/2000/svg" xmlns:xlink="http://www.w3.org/1999/xlink" width="289.26483" height="307.03624" viewBox="0,0,289.26483,307.03624"><g transform="translate(-95.36759,-26.48188)"><g data-paper-data="{&quot;isPaintingLayer&quot;:true}" fill-rule="nonzero" stroke-linecap="butt" stroke-linejoin="miter" stroke-miterlimit="10" stroke-dasharray="" stroke-dashoffset="0" style="mix-blend-mode: normal"><path d="M379.63241,179.99998c0,82.0243 -62.51557,148.51814 -139.63241,148.51814c-77.11685,0 -139.63241,-66.49384 -139.63241,-148.51814c0,-82.0243 62.51557,-148.5181 139.63241,-148.5181c77.11685,0 139.63241,66.4938 139.63241,148.5181z" fill="#fbff00" stroke="#000000" stroke-width="10"/><path d="M214.88784,115.23641c0,21.16441 -16.13065,38.32156 -36.02881,38.32156c-19.89816,0 -36.02881,-17.15715 -36.02881,-38.32156c0,-21.16441 16.13065,-38.32155 36.02881,-38.32155c19.89816,0 36.02881,17.15714 36.02881,38.32155z" fill="#f3f3f3" stroke="#000000" stroke-width="5"/><path d="M160.79477,115.93494c-4.72937,-3.4593 -3.87285,-8.47023 -3.87285,-13.26226c0,-1.26589 -0.05097,-3.14047 0.08557,-4.93052c-0.05549,-0.32997 -0.08557,-0.68769 -0.08557,-1.07549c0,-4.44729 3.95568,-4.9389 4.83021,-4.99325c1.10969,-3.00976 4.67429,-3.00976 4.67429,-3.00976c1.05779,0.03408 2.14388,-0.11945 3.19337,-0.0304c0.75183,-0.01268 1.59126,0.13228 2.38425,0.61363c3.16564,1.15082 4.34549,2.76431 6.96692,5.38574c0.11369,0.11369 0.22831,0.22881 0.34359,0.34535c1.2117,0.21441 2.2088,0.56993 2.65941,1.15616c0.80437,1.04645 1.2528,2.35265 1.42918,3.72667c1.87966,2.94139 2.80551,6.3223 0.79004,9.94503c-0.9776,1.7572 -3.299,2.30528 -5.02019,3.34498c-4.4592,2.69362 -12.71374,7.92729 -17.78361,3.5679c-0.18607,-0.16 -0.35418,-0.4058 -0.50541,-0.7208c-0.02999,-0.02042 -0.05973,-0.04141 -0.08921,-0.06298z" fill="#000000" stroke="none" stroke-width="0.5"/><path d="M312.98094,108.2244c0,21.16441 -16.13066,38.32156 -36.02882,38.32156c-19.89816,0 -36.02881,-17.15715 -36.02881,-38.32156c0,-21.16441 16.13065,-38.32156 36.02881,-38.32156c19.89816,0 36.02882,17.15715 36.02882,38.32156z" fill="#f3f3f3" stroke="#000000" stroke-width="5"/><path d="M260.38936,113.42743c-4.72937,-3.4593 -3.87285,-8.47024 -3.87285,-13.26227c0,-1.26588 -0.05096,-3.14047 0.08557,-4.93052c-0.05549,-0.32998 -0.08557,-0.68769 -0.08557,-1.07549c0,-4.44729 3.95568,-4.9389 4.83022,-4.99324c1.10969,-3.00975 4.67429,-3.00976 4.67429,-3.00976c1.05779,0.03408 2.14388,-0.11944 3.19338,-0.03039c0.75182,-0.01268 1.59127,0.13227 2.38425,0.61362c3.16564,1.15082 4.34549,2.76431 6.96692,5.38575c0.11369,0.11369 0.22831,0.22881 0.3436,0.34534c1.2117,0.21441 2.2088,0.56994 2.6594,1.15615c0.80436,1.04645 1.2528,2.35264 1.42918,3.72666c1.87966,2.94138 2.80552,6.3223 0.79004,9.94503c-0.97761,1.7572 -3.299,2.30529 -5.02019,3.34499c-4.4592,2.69362 -12.71374,7.92728 -17.78361,3.5679c-0.18607,-0.16 -0.35418,-0.4058 -0.50541,-0.7208c-0.02999,-0.02042 -0.05973,-0.04141 -0.08921,-0.06298z" fill="#000000" stroke="none" stroke-width="0.5"/><path d="M272.95358,211.83399c-0.69295,0.51179 -1.78898,0.36466 -2.39102,0.98082c-0.78213,0.80048 -0.69014,2.23217 -1.5015,3.003c-0.38954,0.37008 -1.00179,0.31653 -1.56304,0.37868c0.0016,0.1753 0.0044,0.35766 0.00755,0.54896c0.00795,0.0129 0.01371,0.02665 0.01695,0.04132c0.21611,0.9774 0,2.002 0,3.003c0,5.00501 0,10.01001 0,15.01502c0,1.37256 0,2.74511 0,4.11767c0.69279,-0.06705 1.47429,0.59865 2.09559,0.27194c1.25296,-0.65887 1.72678,-2.39043 3.003,-3.003c1.13464,-0.54462 2.54335,0.04488 3.76766,-0.24685c1.80537,-0.43019 3.25872,-1.7789 4.9187,-2.60889c1.76332,-0.88166 3.75553,-1.38554 5.31852,-2.58708c1.77212,-1.3623 3.32602,-3.13551 5.39402,-3.98383c0.5005,-1.001 0.71014,-2.21164 1.5015,-3.003c0.79136,-0.79136 2.20252,-0.71937 3.003,-1.5015c0.61616,-0.60204 0.45088,-1.71185 0.98082,-2.39102c0.64598,-0.82789 1.95661,-1.06056 2.43982,-1.99287c0.34541,-0.66645 -0.43609,-1.51196 -0.24685,-2.23835c0.10558,-0.40525 1.65612,-3.64771 2.76187,-5.83092c-0.69092,0.01012 -1.37755,-0.01299 -2.0474,-0.16609c-1.09102,-0.24936 -1.92574,-1.19816 -3.003,-1.5015c-2.92316,-0.82313 -7.77299,0.13376 -10.86325,0.13376c-1.61969,0 -3.29818,-0.57277 -4.85724,-0.13376c-1.07726,0.30334 -1.91198,1.25214 -3.003,1.5015c-1.01595,0.2322 -2.15261,0.19118 -3.31493,0.08481c-0.79144,0.73548 -1.56959,1.48171 -2.41779,2.10815zM308.54795,198.06632c-1.89767,0.0449 -4.15977,-0.30356 -5.48489,-0.30356c-0.44522,0 -0.95239,-0.03017 -1.49511,-0.07307c0.64097,0.42197 1.23529,1.03793 1.60461,1.93704c0.45659,0.11807 0.91881,0.18218 1.39201,0.14805l3.66493,2.15803c0.19568,-0.41204 0.35819,-0.84656 0.47783,-1.3098c0.01739,-0.06734 0.03352,-0.13519 0.04844,-0.20352c-0.32839,-0.84013 -0.34532,-1.64197 -0.20781,-2.35317zM257.29883,214.49625c-0.8528,0.4555 -1.70858,0.90278 -2.63655,1.15078c-1.16681,0.31182 -2.94888,-0.83385 -3.61924,0.17079c-0.62117,0.93094 -0.70305,2.2188 -1.5015,3.003c-0.98506,0.96748 -2.48898,1.22313 -3.61499,2.02218c-2.27743,1.61612 -4.88482,6.47163 -5.56481,9.10457c-0.40502,1.56824 0.13376,3.23755 0.13376,4.85724c0,3.09026 -0.95689,7.94009 -0.13376,10.86325c0.30334,1.07726 1.25214,1.91198 1.5015,3.003c0.00191,0.00836 0.0038,0.01732 0.00566,0.02687c0.47444,-0.30436 0.94951,-0.60701 1.48684,-0.74135c0.97111,-0.24278 2.02645,0.21986 3.003,0c3.85404,-0.8677 7.32087,-4.36265 11.16378,-5.73998c0,-2.4706 0,-4.94119 0,-7.41179c0,-4.5045 0,-9.00901 0,-13.51351c0,-2.00641 -0.25408,-4.49295 -0.2237,-6.79504zM266.4945,198.23624c0.80413,-0.75385 5.86425,-3.21899 7.30547,-3.93961c3.48724,-1.74362 6.13776,-3.39711 10.09631,-3.39711c1.001,-0.5005 1.91726,-1.23007 3.003,-1.5015c0.97111,-0.24278 2.03189,0.24278 3.003,0c1.08574,-0.27143 1.91198,-1.25214 3.003,-1.5015c4.80437,-1.09806 11.22422,-0.2261 16.16378,-0.13376c0.44036,0.00823 0.86868,0.01057 1.2863,0.01342c0.09494,-1.15213 -0.19196,-2.35013 -0.26421,-3.52693h-2.52359c-1.61969,0 -3.29818,-0.57277 -4.85724,-0.13376c-1.07726,0.30334 -1.91198,1.25214 -3.003,1.5015c-2.74672,0.62778 -6.37567,-0.74152 -9.00901,0c-1.07726,0.30334 -1.91198,1.25214 -3.003,1.5015c-1.34983,0.30851 -2.76785,0.08917 -4.15177,0.13376c-2.16625,0 -5.79875,-0.71425 -7.86024,-0.13376c-1.07726,0.30334 -1.91198,1.25214 -3.003,1.5015c-1.34983,0.30851 -2.76737,0.10787 -4.15177,0.13376c-4.50115,0.08415 -9.01123,0 -13.51351,0c-2.12005,0 -4.31806,-0.70839 -6.35874,-0.13376c-1.07726,0.30334 -1.91198,1.25214 -3.003,1.5015c-4.86813,1.11263 -11.16211,0.13376 -16.16378,0.13376c-1.61969,0 -3.29818,-0.57277 -4.85724,-0.13376c-1.07726,0.30334 -1.91198,1.25214 -3.003,1.5015c-1.34983,0.30851 -2.76785,0.08917 -4.15177,0.13376c-20.35536,0 -40.71071,0 -61.06607,0c0,2.83784 0,5.67568 0,8.51351c0,1.61969 -0.57277,3.29818 -0.13376,4.85724c0.30334,1.07726 1.23007,1.91726 1.5015,3.003c0.24278,0.97111 -0.21986,2.02645 0,3.003c0.68876,3.05925 3.67472,5.904 4.5045,9.00901c0.25844,0.96706 -0.20255,2.02271 0,3.003c0.49329,2.38735 2.70858,4.05626 3.96281,6.14664c1.36403,2.27338 2.37937,4.78589 4.04666,6.8472c1.47085,1.81844 3.28569,3.47657 4.17333,5.64042c1.001,0.5005 2.21164,0.71014 3.003,1.5015c0.79136,0.79136 0.71937,2.20252 1.5015,3.003c0.60204,0.61616 1.69807,0.46904 2.39102,0.98082c3.14164,2.3203 6.18799,5.6517 10.23723,6.69747c1.9384,0.50062 4.05433,-0.44606 6.00601,0c1.09102,0.24936 1.92574,1.19816 3.003,1.5015c2.06149,0.58049 5.694,-0.13376 7.86024,-0.13376c3.003,0 6.00601,0 9.00901,0c1.61969,0 3.29818,0.57277 4.85724,0.13376c1.07726,-0.30334 1.91726,-1.23007 3.003,-1.5015c1.63043,-0.40761 3.4637,-0.26631 4.9187,-1.10739c0.36143,-0.18071 1.12433,-0.56588 2.02379,-1.01478c-0.02213,-0.29391 -0.06866,-0.58489 -0.14946,-0.87183c-0.30334,-1.07726 -1.25214,-1.91198 -1.5015,-3.003c-0.90271,-3.94964 -0.13376,-9.09748 -0.13376,-13.16078c0,-1.15027 -0.03223,-6.48063 0.13376,-7.15477c1.26132,-5.12273 5.40174,-11.74573 9.4502,-14.91946c0.67797,-0.53148 1.78898,-0.36466 2.39102,-0.98082c0.78213,-0.80048 0.64741,-2.2798 1.5015,-3.003c4.28829,-3.63113 6.3908,-1.67495 10.30847,-3.93961c1.1419,-0.57095 6.29134,-3.1828 7.09331,-3.39711c0.96706,-0.25844 2.03189,0.24278 3.003,0c0.25241,-0.0631 0.4908,-0.16454 0.72175,-0.28621c0.6779,-0.80998 0.61777,-2.15802 1.39598,-2.88758zM320.07508,197.26727l-1.50826,2.56145c0.09178,1.08052 0.10851,2.13534 -0.12699,3.09182c-1.11708,4.53692 -4.15783,7.32593 -6.81604,10.7838c-0.96819,1.25944 -1.82475,2.6859 -2.19297,4.23122c-0.29173,1.2243 0.307,2.63749 -0.24685,3.76766c-0.78751,1.60698 -2.50859,2.56952 -3.56619,4.01314c-0.81597,1.1138 -1.0547,2.62992 -2.02218,3.61499c-0.7842,0.79845 -2.21164,0.71014 -3.003,1.5015c-0.79136,0.79136 -1.001,2.002 -1.5015,3.003c-2.41737,1.35225 -4.38623,3.3846 -6.61799,5.02518c-2.71162,1.99333 -6.64549,3.45925 -9.69649,4.92043c-1.35532,0.64909 -2.63611,1.51676 -4.09031,1.89561c-0.72639,0.18924 -1.57397,-0.59621 -2.23835,-0.24685c-1.25296,0.65887 -1.72678,2.39043 -3.003,3.003c-1.13464,0.54462 -2.54335,-0.04488 -3.76766,0.24685c-2.17735,0.51882 -3.84358,2.42512 -6.00601,3.003c-0.96706,0.25844 -2.02645,-0.21986 -3.003,0c-4.13549,0.93106 -7.82516,4.88711 -12.01201,6.00601c-0.96706,0.25844 -2.03189,-0.24278 -3.003,0c-1.08574,0.27143 -1.91726,1.23007 -3.003,1.5015c-0.58459,0.14615 -1.19969,0.03667 -1.80976,-0.02568c-0.72753,0.91535 -1.91272,1.66093 -3.84351,1.66093c-0.20516,0 -0.40189,-0.00842 -0.59056,-0.02456c-0.54978,0.356 -1.10103,0.70978 -1.67788,0.9982c-8.37374,3.88072 -17.02895,3.53087 -26.26009,3.53087c-3.10041,0 -7.16083,0.55121 -10.15777,-0.13376c-1.09102,-0.24936 -1.92574,-1.19816 -3.003,-1.5015c-1.92706,-0.54264 -4.06206,0.47864 -6.00601,0c-2.85451,-0.70284 -8.38641,-3.55221 -10.7838,-5.31454c-1.14061,-0.83847 -1.87556,-2.14691 -3.003,-3.003c-1.09963,-0.83497 -2.62992,-1.0547 -3.61499,-2.02218c-0.79845,-0.7842 -0.71014,-2.21164 -1.5015,-3.003c-0.79136,-0.79136 -2.002,-1.001 -3.003,-1.5015c-1.30166,-2.32695 -3.1802,-4.28153 -4.83568,-6.3716c-2.84652,-3.59376 -5.68688,-8.66806 -7.96535,-12.67232c-0.79434,-1.396 -1.61393,-2.81613 -2.0432,-4.36387c-0.26753,-0.96459 0.21986,-2.02645 0,-3.003c-0.40764,-1.8106 -1.80725,-3.24484 -2.60889,-4.9187c-0.64909,-1.35532 -1.50764,-2.63852 -1.89561,-4.09031c-0.25844,-0.96706 0.24278,-2.03189 0,-3.003c-0.27143,-1.08574 -1.25214,-1.91198 -1.5015,-3.003c-0.16599,-0.72625 -0.13376,-5.96683 -0.13376,-7.15477c0,-4.004 0,-8.00801 0,-12.01201c0,0 0,-2.90543 2.21478,-4.28673c0.16786,-0.26914 0.35822,-0.50557 0.56314,-0.71327c1.48139,-1.5015 3.72359,-1.5015 3.72359,-1.5015c21.52152,0 43.04304,0 64.56456,0c1.67769,0.12102 3.21748,-0.99297 4.85724,-1.36775c1.34983,-0.30851 2.76737,-0.10787 4.15177,-0.13376c4.00062,-0.07479 8.0106,0 12.01201,0c1.61969,0 3.29818,0.57277 4.85724,0.13376c1.07726,-0.30334 1.91198,-1.25214 3.003,-1.5015c0.79676,-0.1821 8.03267,-0.13376 8.65627,-0.13376c3.5035,0 7.00701,0 10.51051,0c1.61969,0 3.29818,0.57277 4.85724,0.13376c1.07726,-0.30334 1.91198,-1.25214 3.003,-1.5015c2.99694,-0.68496 7.05736,-0.13376 10.15777,-0.13376c1.67769,0.12102 3.21748,-0.99297 4.85724,-1.36775c2.74672,-0.62778 6.37567,0.74152 9.00901,0c1.07726,-0.30334 1.91198,-1.25214 3.003,-1.5015c0.72625,-0.16599 5.96683,-0.13376 7.15477,-0.13376l2.50751,0c0,-1.83684 0,-3.67367 0,-5.51051v-1.5015c0,0 0,-5 5,-5c5,0 5,5 5,5c0,5.00501 0,11.51151 0,16.51652c0,1.18794 0.03223,6.42852 -0.13376,7.15477c-0.0823,0.3601 -0.2408,0.69228 -0.42714,1.01447c0.85966,1.51143 0.32717,3.58162 0.56089,5.34427z" fill="#000000" stroke="none" stroke-width="0.5"/><path d="M156.36445,191.7396c20.35536,0 40.73319,-0.02644 61.08854,-0.02644c1.38392,-0.04459 2.80738,0.17212 4.15721,-0.13639c1.09102,-0.24936 1.93086,-1.19995 3.00812,-1.50329c1.55906,-0.43902 3.24517,0.13218 4.86487,0.13218c5.00167,0 11.32122,0.98235 16.18935,-0.13029c1.09102,-0.24936 1.92861,-1.19685 3.00587,-1.5002c2.04069,-0.57464 4.24524,0.13764 6.36529,0.13764c4.50228,0 9.0212,0.09205 13.52235,0.00791c1.3844,-0.02588 2.80362,0.17677 4.15345,-0.13174c1.09102,-0.24936 1.92614,-1.19765 3.0034,-1.501c2.06149,-0.58049 5.69636,0.1371 7.86261,0.1371c1.38392,-0.04459 2.80283,0.17619 4.15266,-0.13232c1.09102,-0.24936 1.92584,-1.19799 3.0031,-1.50134c2.63334,-0.74152 6.26379,0.63047 9.0105,0.0027c1.09102,-0.24936 1.92576,-1.19813 3.00301,-1.50148c1.55906,-0.43902 3.23818,0.13503 4.85787,0.13503l2.52387,0.00058c0.08989,1.46416 0.51302,2.96336 0.11863,4.36396c-0.30334,1.07726 -1.25164,1.91327 -1.501,3.00429c-0.64017,2.80096 0.69861,6.31542 0.00162,9.01419c-0.79153,3.0648 -3.45881,4.87615 -5.19514,7.23816c-0.4651,0.6327 -3.65925,7.19809 -3.81243,7.78604c-0.18924,0.72639 0.59233,1.57359 0.24692,2.24003c-0.4832,0.93231 -1.79381,1.16647 -2.4398,1.99436c-0.52994,0.67917 -0.3647,1.79087 -0.98086,2.39291c-0.80048,0.78213 -2.21171,0.71148 -3.00307,1.50284c-0.79136,0.79136 -1.00124,2.00461 -1.50174,3.00561c-2.068,0.84832 -3.62258,2.62569 -5.39469,3.98799c-1.56299,1.20154 -3.55605,1.70892 -5.31937,2.59058c-1.65999,0.82999 -3.11462,2.18267 -4.92,2.61286c-1.2243,0.29173 -2.63368,-0.29608 -3.76832,0.24854c-1.27623,0.61258 -1.75208,2.34845 -3.00504,3.00731c-0.66438,0.34936 -1.51247,-0.43515 -2.23886,-0.24591c-2.16601,0.5643 -3.82668,2.51785 -6.01033,3.00948c-0.97656,0.21986 -2.03771,-0.25631 -3.00478,0.00213c-4.18686,1.11889 -7.89291,5.08722 -12.02841,6.01828c-0.97656,0.21986 -2.0361,-0.24104 -3.00722,0.00173c-1.08574,0.27143 -1.92251,1.23163 -3.00825,1.50307c-0.97111,0.24278 -2.04074,-0.25753 -3.0078,0.00091c-0.80197,0.21432 -5.96277,2.82643 -7.10467,3.39738c-1.455,0.84108 -3.29505,0.6987 -4.92548,1.10631c-1.08574,0.27143 -1.9291,1.19726 -3.00636,1.5006c-1.55906,0.43902 -3.2432,-0.13587 -4.8629,-0.13587c-3.003,0 -6.01433,-0.00469 -9.01733,-0.00469c-2.16625,0 -5.80391,0.71012 -7.8654,0.12963c-1.07726,-0.30334 -1.91432,-1.25443 -3.00534,-1.50379c-1.95168,-0.44606 -4.07017,0.49773 -6.00857,-0.00289c-4.04924,-1.04577 -7.10111,-4.38549 -10.24276,-6.70579c-0.69295,-0.51179 -1.78972,-0.36613 -2.39177,-0.98229c-0.78213,-0.80048 -0.71129,-2.21417 -1.50265,-3.00553c-0.79136,-0.79136 -2.00275,-1.00289 -3.00375,-1.50339c-0.88763,-2.16384 -2.70404,-3.82693 -4.17489,-5.64537c-1.66729,-2.06131 -2.68374,-4.57936 -4.04777,-6.85274c-1.25423,-2.09038 -3.46996,-3.76395 -3.96325,-6.1513c-0.20255,-0.98029 0.25838,-2.03805 -0.00005,-3.00512c-0.82978,-3.10501 -3.81542,-5.9557 -4.50418,-9.01495c-0.21986,-0.97656 0.24304,-2.03383 0.00026,-3.00494c-0.27143,-1.08574 -1.19786,-1.92747 -1.5012,-3.00472c-0.43902,-1.55906 0.13441,-3.2405 0.13441,-4.8602c0,-2.83784 0.00149,-5.6805 0.00149,-8.51834z" data-paper-data="{&quot;noHover&quot;:false,&quot;origItem&quot;:[&quot;Path&quot;,{&quot;applyMatrix&quot;:true,&quot;segments&quot;:[[[312.82282,400.54054],[0,-5.67568],[0,3.23939]],[[312.55531,410.25502],[-0.87803,-3.11812],[0.60669,2.15452]],[[315.55832,416.26103],[-0.54287,-2.17148],[0.48556,1.94223]],[[315.55832,422.26704],[-0.43972,-1.95311],[1.37751,6.1185]],[[324.56732,440.28505],[-1.65956,-6.21001],[0.51687,1.93413]],[[324.56732,446.29106],[-0.40511,-1.96059],[0.98658,4.7747]],[[332.49294,458.58434],[-2.50846,-4.18076],[2.72806,4.54677]],[[340.58627,472.27873],[-3.33458,-4.12261],[2.94169,3.63688]],[[348.93293,483.55956],[-1.77527,-4.32768],[2.002,1.001]],[[354.93894,486.56257],[-1.58272,-1.58272],[1.58272,1.58272]],[[357.94194,492.56857],[-1.56427,-1.60096],[1.20408,1.23233]],[[362.72398,494.53022],[-1.3859,-1.02358],[6.28328,4.6406]],[[383.19843,507.92517],[-8.09847,-2.09154],[3.8768,1.00124]],[[395.21044,507.92517],[-3.90335,-0.89213],[2.18204,0.49872]],[[401.21645,510.92817],[-2.15452,-0.60669],[4.12299,1.16099]],[[416.93694,510.66066],[-4.3325,0],[6.00601,0]],[[434.95495,510.66066],[-6.00601,0],[3.23939,0]],[[444.66944,510.92817],[-3.11812,0.87803],[2.15452,-0.60669]],[[450.67544,507.92517],[-2.17148,0.54287],[3.26086,-0.81521]],[[460.51285,505.71038],[-2.91,1.68216],[2.2838,-1.1419]],[[474.69947,498.91616],[-1.60393,0.42863],[1.93413,-0.51687]],[[480.70547,498.91616],[-1.94223,0.48556],[2.17148,-0.54287]],[[486.71148,495.91316],[-2.17148,0.54287],[1.94223,-0.48556]],[[492.71749,495.91316],[-1.95311,0.43972],[8.27099,-1.86212]],[[516.74151,483.90114],[-8.37371,2.23778],[1.93413,-0.51687]],[[522.74752,483.90114],[-1.95311,0.43972],[4.3673,-0.98325]],[[534.75953,477.89514],[-4.33201,1.12859],[1.45279,-0.37849]],[[539.23623,478.38883],[-1.32877,0.69873],[2.50592,-1.31773]],[[545.24223,472.38283],[-2.55245,1.22515],[2.26928,-1.08923]],[[552.77755,471.88913],[-2.4486,0.58346],[3.61075,-0.86038]],[[562.61495,466.67134],[-3.31997,1.65999],[3.52664,-1.76332]],[[573.252,461.49719],[-3.12598,2.40308],[3.54423,-2.72461]],[[584.04004,453.52953],[-4.136,1.69663],[1.001,-2.002]],[[587.04305,447.52353],[-1.58272,1.58272],[1.58272,-1.58272]],[[593.04905,444.52052],[-1.60096,1.56427],[1.23233,-1.20408]],[[595.0107,439.73848],[-1.05988,1.35834],[1.29196,-1.65578]],[[599.89033,435.75275],[-0.9664,1.86463],[0.69082,-1.3329]],[[599.39664,431.27604],[-0.37849,1.45279],[0.30635,-1.1759]],[[607.02271,415.71446],[-0.9302,1.2654],[3.47266,-4.72402]],[[617.41466,401.24601],[-1.58305,6.1296],[1.39399,-5.39753]],[[617.41466,383.228],[-1.28034,5.60191],[0.49872,-2.18204]],[[620.41766,377.22199],[-0.60669,2.15452],[0.78879,-2.80121]],[[620.18232,368.4985],[0.17978,2.92831],[0,0]],[[615.13514,368.4985],[0,0],[-3.23939,0]],[[605.42065,368.23099],[3.11812,-0.87803],[-2.15452,0.60669]],[[599.41465,371.23399],[2.18204,-0.49872],[-5.49343,1.25555]],[[581.39663,371.23399],[5.26669,-1.48304],[-2.15452,0.60669]],[[575.39062,374.23699],[2.18204,-0.49872],[-2.69967,0.61702]],[[567.08709,374.5045],[2.76785,-0.08917],[-4.3325,0]],[[551.3666,374.23699],[4.12299,-1.16099],[-2.15452,0.60669]],[[545.36059,377.24],[2.18204,-0.49872],[-2.69967,0.61702]],[[537.05706,377.50751],[2.7688,-0.05176],[-9.00229,0.16829]],[[510.03003,377.50751],[9.00457,0],[-4.2401,0]],[[497.31254,377.24],[4.08137,-1.14927],[-2.15452,0.60669]],[[491.30654,380.243],[2.18204,-0.49872],[-9.73626,2.22527]],[[458.97898,380.51051],[10.00334,0],[-3.23939,0]],[[449.2645,380.243],[3.11812,-0.87803],[-2.15452,0.60669]],[[443.25849,383.246],[2.18204,-0.49872],[-2.69967,0.61702]],[[434.95495,383.51351],[2.76785,-0.08917],[-40.71071,0]],[[312.82282,383.51351],[40.71071,0],[0,5.67568]]],&quot;closed&quot;:true}]}" fill="#ff0000" stroke="none" stroke-width="0.5"/><path d="M289.9239,222.54154c-2.18128,-1.40134 -2.07661,-4.89046 -3.90988,-6.72373c-0.93972,-0.93972 -2.33249,-1.33997 -3.61924,-1.67229c-5.62136,-1.45179 -11.49577,1.46214 -16.86925,1.63526c-2.70014,-0.19477 -4.3276,1.25247 -6.77294,2.47514c-3.28068,1.64034 -5.10813,2.46799 -7.70954,5.0694c-1.18987,1.18987 -2.22368,2.57717 -3.61499,3.52368c-0.46162,0.31404 -1.17072,-0.16922 -1.6733,0.07395c-0.25065,0.12127 0.68663,0.10247 0.74675,0.37435c0.74472,3.36817 -1.04982,7.61006 -0.13376,10.86325c0.30334,1.07726 1.23007,1.91726 1.5015,3.003c0.29292,1.17169 -0.68322,2.76523 0.17079,3.61924c0.58236,0.58236 1.64902,0.09629 2.47047,0.03704c0,0 1.58729,0 2.97321,0.89434c3.33058,-1.75071 6.67943,-3.63064 10.12839,-5.01824c6.86092,-2.76032 13.95947,-5.58683 20.01089,-9.94732c2.86129,-2.06177 2.84243,-4.54105 5.62054,-7.19969c0.12984,-0.12425 0.58323,-0.39219 1.20477,-0.73149c-0.1805,-0.07642 -0.35564,-0.16745 -0.52441,-0.27588zM240.96897,251.85385c-1.4351,-1.4351 -2.18328,-3.46678 -2.83221,-5.38977c-0.32006,-0.94845 0.24278,-2.03189 0,-3.003c-0.27143,-1.08574 -1.25214,-1.91198 -1.5015,-3.003c-0.8357,-3.65647 -0.46019,-9.38619 -0.13376,-13.16078c0.16316,-1.88661 -0.21955,-4.0031 0.74675,-5.63166c0.88957,-1.49925 2.97462,-1.83604 4.33271,-2.92906c2.20565,-1.77515 3.73534,-4.31482 6.00601,-6.00601c4.74677,-3.53539 12.18425,-6.76441 17.93857,-6.9498c1.67769,0.12102 3.21748,-0.99297 4.85724,-1.36775c2.93894,-0.67171 7.10814,-0.19077 10.15777,-0.13376c1.3844,0.02588 2.80728,-0.19728 4.15177,0.13376c1.03627,0.25515 7.77361,3.71455 8.39278,4.33371c1.16561,1.16561 1.83069,2.77004 2.4381,4.30247c0.12816,0.32334 -0.38864,0.64115 -0.34198,0.98582c0.03736,0.27592 0.24956,-0.49783 0.37435,-0.74675l5.03704,2.96597c0,0 0.67466,0.67466 1.13984,1.72926c0.60787,0.24129 1.23552,0.6461 1.86317,1.27375c3.53553,3.53553 0,7.07107 0,7.07107l-2.80097,2.4381c-1.62015,0.81008 -3.69936,0.95295 -4.93306,2.27926c-2.29207,2.46414 -3.72317,5.76453 -6.39147,7.81533c-1.01701,0.78165 -2.31825,1.10786 -3.41692,1.76984c-6.17925,3.72314 -11.9185,6.64252 -18.61423,9.30386c-3.99199,1.58668 -7.84485,3.93649 -11.68936,5.85874c0,0 -3.54062,1.77031 -5.89631,-0.98981c-3.5631,-0.06374 -5.70335,0.23116 -8.8843,-2.94979z" fill="#000000" stroke="none" stroke-width="0.5"/><path d="M290.49608,222.80266c-0.62154,0.33929 -1.0747,0.60798 -1.20454,0.73223c-2.77812,2.65863 -2.75736,5.15521 -5.61865,7.21698c-6.05142,4.3605 -13.21872,7.23003 -20.07964,9.99035c-3.44896,1.3876 -6.81266,3.25815 -10.14324,5.00886c-1.38591,-0.89434 -2.97742,-0.89868 -2.97742,-0.89868c-0.82145,0.05926 -1.89016,0.54278 -2.47252,-0.03958c-0.85401,-0.85401 0.11859,-2.45295 -0.17433,-3.62465c-0.27143,-1.08574 -1.20125,-1.93227 -1.50459,-3.00952c-0.91606,-3.25319 0.87539,-7.51877 0.13068,-10.88695c-0.06011,-0.27187 -0.99732,-0.25371 -0.74667,-0.37498c0.50258,-0.24316 1.21177,0.23942 1.67339,-0.07462c1.39131,-0.94651 2.42783,-2.34449 3.6177,-3.53437c2.60142,-2.60142 4.44412,-3.45027 7.7248,-5.09061c2.44534,-1.22267 4.09533,-2.6803 6.79548,-2.48553c5.37349,-0.17311 11.29072,-3.07469 16.91209,-1.6229c1.28675,0.33232 2.6852,0.73875 3.62492,1.67847c1.83327,1.83327 1.73659,5.33741 3.91787,6.73874c0.16877,0.10842 0.34418,0.20033 0.52469,0.27674z" data-paper-data="{&quot;noHover&quot;:false,&quot;origItem&quot;:[&quot;Path&quot;,{&quot;applyMatrix&quot;:true,&quot;selected&quot;:true,&quot;segments&quot;:[[[289.9239,222.54154],[0.16877,0.10842],[-2.18128,-1.40134],7],[[286.01402,215.81782],[1.83327,1.83327],[-0.93972,-0.93972],7],[[282.39478,214.14552],[1.28675,0.33232],[-5.62136,-1.45179],7],[[265.52553,215.78078],[5.37349,-0.17311],[-2.70014,-0.19477],7],[[258.75258,218.25592],[2.44534,-1.22267],[-3.28068,1.64034],7],[[251.04304,223.32532],[2.60142,-2.60142],[-1.18987,1.18987],7],[[247.42806,226.849],[1.39131,-0.94651],[-0.46162,0.31404],7],[[245.75476,226.92295],[0.50258,-0.24316],[-0.25065,0.12127],7],[[246.5015,227.2973],[-0.06011,-0.27187],[0.74472,3.36817],7],[[246.36775,238.16054],[-0.91606,-3.25319],[0.30334,1.07726],7],[[247.86925,241.16355],[-0.27143,-1.08574],[0.29292,1.17169],7],[[248.04004,244.78278],[-0.85401,-0.85401],[0.58236,0.58236],7],[[250.51051,244.81982],[-0.82145,0.05926],[0,0],7],[[253.48372,245.71416],[-1.38591,-0.89434],[3.33058,-1.75071],7],[[263.61211,240.69592],[-3.44896,1.3876],[6.86092,-2.76032],7],[[283.623,230.74859],[-6.05142,4.3605],[2.86129,-2.06177],7],[[289.24354,223.54891],[-2.77812,2.65863],[0.12984,-0.12425],7],[[290.44831,222.81742],[-0.62154,0.33929],[-0.1805,-0.07642],7]],&quot;closed&quot;:true}]}" fill="#ffa0a0" stroke="none" stroke-width="0.5"/></g></g></svg>