<svg version="1.1" xmlns="http://www.w3.org/2000/svg" xmlns:xlink="http://www.w3.org/1999/xlink" width="132.42354" height="70.49758" viewBox="0,0,132.42354,70.49758"><g transform="translate(-164.50143,-159.51116)"><g data-paper-data="{&quot;isPaintingLayer&quot;:true}" fill="#000000" fill-rule="nonzero" stroke="none" stroke-width="0.5" stroke-linecap="butt" stroke-linejoin="miter" stroke-miterlimit="10" stroke-dasharray="" stroke-dashoffset="0" style="mix-blend-mode: normal"><path d="M176.17995,162.01116c0,-1.38071 1.11929,-2.5 2.5,-2.5c1.38071,0 2.5,1.11929 2.5,2.5c0,1.38071 -1.11929,2.5 -2.5,2.5c-1.38071,0 -2.5,-1.11929 -2.5,-2.5z"/><path d="M281.19586,162.01116c0,-1.38071 1.11929,-2.5 2.5,-2.5c1.38071,0 2.5,1.11929 2.5,2.5c0,1.38071 -1.11929,2.5 -2.5,2.5c-1.38071,0 -2.5,-1.11929 -2.5,-2.5z"/><path d="M296.76363,204.97722c0.79057,2.37171 -1.58114,3.16228 -1.58114,3.16228l-2.39335,0.72729c-1.39449,1.39449 -3.31335,2.1554 -5.0778,3.03627c-2.41743,1.20686 -4.5284,2.9499 -6.82946,4.36608c-3.7262,2.29326 -7.72585,5.60731 -11.73255,7.34285c-1.27338,0.55158 -2.73326,0.5459 -4.0335,1.0308c-1.45244,0.54165 -2.69236,1.60587 -4.18246,2.03315c-0.88671,0.25426 -1.89212,-0.33267 -2.76703,-0.04039c-1.03294,0.34508 -1.66175,1.48847 -2.68486,1.86171c-1.78173,0.64998 -3.68909,0.92497 -5.57221,1.1505c-3.8205,0.45756 -8.06281,0.01217 -11.91478,0.01217c-6.48246,0 -12.96493,0 -19.44739,0c-6.69481,0 -14.06964,0.7972 -20.72522,-0.01873c-1.32646,-0.16262 -2.56652,-0.78337 -3.88948,-0.97237c-3.78612,-0.54087 -7.55869,-0.68533 -11.25797,-2.0813c-2.52275,-0.95199 -4.63288,-2.76862 -7.0376,-3.9884c-1.05718,-0.53625 -2.41625,-0.48383 -3.33621,-1.23139c-2.46089,-1.99973 -5.716,-7.99341 -6.68142,-10.89912c-1.30046,-3.91414 -1.10769,-7.51563 -1.10769,-11.50741c0,0 0,-2.5 2.5,-2.5c2.5,0 2.5,2.5 2.5,2.5c0,3.38171 -0.2659,6.5894 0.83705,9.88472c0.80534,2.40614 2.27712,4.14321 3.60492,6.23118c0.48259,0.75888 0.67333,1.76353 1.3821,2.31709c0.68247,0.53302 1.72102,0.33102 2.498,0.71335c2.27002,1.11701 4.20453,2.90803 6.57557,3.79055c7.67677,2.85736 16.34786,2.76182 24.41424,2.76182c3.24123,0 6.48246,0 9.7237,0c7.77896,0 15.55791,0 23.33687,0c3.72502,0 8.11242,0.5985 11.6841,-0.78207c1.1646,-0.45015 1.96463,-1.63363 3.14936,-2.02777c0.9702,-0.32277 2.08376,0.23952 3.06719,-0.04039c1.29756,-0.36933 2.33426,-1.38006 3.59649,-1.85633c1.20237,-0.45368 2.562,-0.413 3.74546,-0.91394c3.78437,-1.60187 7.62061,-4.86618 11.13483,-7.02857c2.43823,-1.50031 4.69336,-3.31751 7.25319,-4.59936c1.61644,-0.80945 3.3676,-1.51965 4.6459,-2.79795l3.44087,-1.21745c0,0 2.37171,-0.79057 3.16228,1.58114z"/></g></g></svg>