<svg version="1.1" xmlns="http://www.w3.org/2000/svg" xmlns:xlink="http://www.w3.org/1999/xlink" width="186.08078" height="196.82181" viewBox="0,0,186.08078,196.82181"><g transform="translate(-146.95961,-81.5891)"><g data-paper-data="{&quot;isPaintingLayer&quot;:true}" fill-rule="nonzero" stroke-linecap="butt" stroke-linejoin="miter" stroke-miterlimit="10" stroke-dasharray="" stroke-dashoffset="0" style="mix-blend-mode: normal"><path d="M320.97767,205.61864c-16.20116,48.14058 -66.02557,74.81837 -111.28593,59.58652c-45.26036,-15.23185 -68.81751,-66.60536 -52.61635,-114.74594c16.20116,-48.14058 66.02556,-74.81835 111.28592,-59.5865c45.26036,15.23185 68.81752,66.60534 52.61636,114.74592z" fill="#fbff00" stroke="#000000" stroke-width="10"/><path d="M237.07992,135.06872c-4.18032,12.42153 -17.03632,19.30509 -28.71468,15.37488c-11.67836,-3.93022 -17.75671,-17.18593 -13.57639,-29.60745c4.18032,-12.42153 17.03632,-19.30509 28.71468,-15.37487c11.67836,3.93022 17.75672,17.18592 13.5764,29.60744z" fill="#f3f3f3" stroke="#000000" stroke-width="5"/><path d="M205.19439,124.79441c-2.09243,-2.96441 -0.59999,-5.73618 0.34652,-8.54866c0.25003,-0.74296 0.59038,-1.85323 1.02408,-2.87685c0.03261,-0.20462 0.08561,-0.42051 0.16221,-0.64811c0.87841,-2.61014 3.29713,-2.11736 3.82113,-1.97652c1.24576,-1.54726 3.33785,-0.8432 3.33785,-0.8432c0.61409,0.22893 1.28185,0.35335 1.88021,0.6129c0.44376,0.14106 0.90779,0.39194 1.27813,0.83107c1.63063,1.30069 2.0044,2.4807 3.02516,4.53701c0.04427,0.08918 0.0888,0.17939 0.13344,0.27055c0.6688,0.36517 1.18379,0.77077 1.33246,1.20384c0.2654,0.77304 0.27059,1.62823 0.10272,2.46949c0.52221,2.09758 0.39781,4.26473 -1.50063,5.99285c-0.92084,0.83822 -2.39153,0.70138 -3.60707,0.97162c-3.14917,0.70014 -9.02754,2.1414 -11.14203,-1.41853c-0.0776,-0.13066 -0.12772,-0.30812 -0.15426,-0.52287c-0.01357,-0.01791 -0.02688,-0.0361 -0.03992,-0.05458z" fill="#000000" stroke="none" stroke-width="0.5"/><path d="M296.03637,150.32833c-4.18032,12.42153 -17.03633,19.30509 -28.71468,15.37488c-11.67836,-3.93022 -17.75671,-17.18593 -13.57639,-29.60745c4.18032,-12.42153 17.03632,-19.30509 28.71468,-15.37488c11.67836,3.93022 17.75672,17.18593 13.5764,29.60745z" fill="#f3f3f3" stroke="#000000" stroke-width="5"/><path d="M264.14235,142.99432c-2.09243,-2.96441 -0.59999,-5.73619 0.34652,-8.54866c0.25003,-0.74295 0.59039,-1.85323 1.02408,-2.87685c0.03261,-0.20463 0.08561,-0.42051 0.16221,-0.64811c0.87841,-2.61014 3.29713,-2.11736 3.82113,-1.97652c1.24576,-1.54726 3.33785,-0.8432 3.33785,-0.8432c0.61409,0.22893 1.28185,0.35335 1.88022,0.61291c0.44375,0.14105 0.9078,0.39193 1.27813,0.83107c1.63063,1.30069 2.0044,2.4807 3.02515,4.53701c0.04427,0.08918 0.0888,0.17939 0.13345,0.27055c0.6688,0.36517 1.18379,0.77078 1.33246,1.20383c0.26539,0.77304 0.27059,1.62823 0.10272,2.46949c0.52221,2.09758 0.39782,4.26473 -1.50063,5.99285c-0.92084,0.83822 -2.39154,0.70138 -3.60707,0.97163c-3.14917,0.70014 -9.02754,2.1414 -11.14203,-1.41853c-0.0776,-0.13066 -0.12772,-0.30812 -0.15426,-0.52287c-0.01357,-0.01791 -0.02688,-0.0361 -0.03992,-0.05458z" fill="#000000" stroke="none" stroke-width="0.5"/><path d="M252.07945,203.23139c-0.50778,0.1635 -1.12199,-0.13933 -1.59703,0.10338c-0.61715,0.31532 -0.84594,1.17376 -1.47438,1.46591c-0.30172,0.14026 -0.65048,-0.0121 -0.99215,-0.08648c-0.03369,0.1032 -0.06806,0.21078 -0.104,0.32368c0.00212,0.00914 0.00278,0.01835 0.00179,0.0276c-0.06622,0.61633 -0.39543,1.17499 -0.59314,1.76248c-0.98857,2.93747 -1.97714,5.87494 -2.96571,8.81241c-0.2711,0.80556 -0.5422,1.61112 -0.81331,2.41669c0.41985,0.09749 0.74703,0.64255 1.1762,0.57352c0.86551,-0.13921 1.48561,-1.06189 2.35562,-1.16934c0.7735,-0.09553 1.48384,0.52869 2.26002,0.5993c1.14455,0.10411 2.26393,-0.4004 3.40211,-0.55965c1.20905,-0.16917 2.47781,-0.0714 3.63246,-0.46788c1.30915,-0.44952 2.57138,-1.18331 3.95266,-1.27273c0.49146,-0.48864 0.85362,-1.15776 1.47438,-1.46591c0.62076,-0.30815 1.43476,0.01283 2.05905,-0.2881c0.48054,-0.23164 0.60274,-0.91564 1.04792,-1.20958c0.54265,-0.3583 1.35782,-0.23599 1.82557,-0.68772c0.33436,-0.32292 0.04269,-0.97351 0.29723,-1.36246c0.14201,-0.21699 1.69247,-1.81375 2.77266,-2.87669c-0.4075,-0.13053 -0.80593,-0.27971 -1.16883,-0.50187c-0.59107,-0.36185 -0.89357,-1.08357 -1.46591,-1.47438c-1.55304,-1.06047 -4.58844,-1.45679 -6.40213,-2.06717c-0.95061,-0.31992 -1.82259,-0.98761 -2.82432,-1.03789c-0.69217,-0.03474 -1.36947,0.35724 -2.05905,0.2881c-0.64213,-0.06439 -1.30114,-0.31297 -1.9623,-0.60498c-0.60977,0.27534 -1.21386,0.5596 -1.83541,0.75973zM275.68935,202.18153c-1.12262,-0.34847 -2.38144,-0.99978 -3.15916,-1.26152c-0.2613,-0.08794 -0.553,-0.20582 -0.86306,-0.33819c0.29284,0.37426 0.51999,0.85316 0.55916,1.4538c0.24465,0.15948 0.50327,0.2884 0.78774,0.36184l1.72472,1.99045c0.19623,-0.20318 0.37743,-0.4261 0.53915,-0.67435c0.02351,-0.03609 0.04638,-0.07272 0.06863,-0.10988c-0.02679,-0.55794 0.12165,-1.03189 0.34283,-1.42214zM242.36574,201.70181c-0.59048,0.09889 -1.18109,0.19237 -1.77471,0.15464c-0.7464,-0.04746 -1.56602,-1.07184 -2.15789,-0.61462c-0.54844,0.42368 -0.85087,1.16336 -1.47438,1.46591c-0.76923,0.37325 -1.70239,0.22625 -2.52107,0.47281c-1.65585,0.49868 -4.14519,2.83341 -5.06433,4.24439c-0.54746,0.84041 -0.56097,1.92656 -0.88088,2.87716c-0.61038,1.81369 -2.1299,4.47109 -2.22418,6.34929c-0.03474,0.69217 0.35724,1.36947 0.2881,2.05905c-0.00053,0.00528 -0.00119,0.01092 -0.00199,0.01689c0.33857,-0.08492 0.67717,-0.16871 1.01906,-0.14143c0.6179,0.04932 1.14591,0.52929 1.76248,0.59314c2.43335,0.25198 5.15836,-1.11447 7.68583,-1.1638c0.48798,-1.45001 0.97597,-2.90002 1.46395,-4.35003c0.88971,-2.64372 1.77943,-5.28744 2.66914,-7.93116c0.3963,-1.17757 0.73831,-2.68713 1.21084,-4.03224zM250.97436,193.97501c0.62085,-0.28361 4.07757,-0.73096 5.06576,-0.86923c2.39108,-0.33455 4.27328,-0.78148 6.59657,0.0004c0.68635,-0.09603 1.36821,-0.34325 2.05905,-0.2881c0.6179,0.04932 1.14458,0.54382 1.76248,0.59314c0.69084,0.05515 1.36947,-0.35724 2.05905,-0.2881c3.0366,0.30448 6.63222,2.08427 9.51304,3.11411c0.25682,0.09181 0.50775,0.17778 0.75229,0.26194c0.28329,-0.65744 0.35153,-1.41722 0.54156,-2.12216l-1.48111,-0.49845c-0.95061,-0.31992 -1.82259,-0.98761 -2.82432,-1.03789c-0.69217,-0.03474 -1.36947,0.35724 -2.05905,0.2881c-1.73606,-0.17407 -3.59546,-1.6945 -5.28744,-1.77943c-0.69217,-0.03474 -1.36947,0.35724 -2.05905,0.2881c-0.85316,-0.08555 -1.64208,-0.49436 -2.46312,-0.74154c-1.27139,-0.42787 -3.26225,-1.56455 -4.5868,-1.63103c-0.69217,-0.03474 -1.36947,0.35724 -2.05905,0.2881c-0.85316,-0.08555 -1.64549,-0.48329 -2.46312,-0.74154c-2.65837,-0.83966 -5.28875,-1.77987 -7.93116,-2.66914c-1.24427,-0.41874 -2.39438,-1.26865 -3.70556,-1.33446c-0.69217,-0.03474 -1.36947,0.35724 -2.05905,0.2881c-3.0769,-0.30853 -6.57753,-2.1262 -9.51304,-3.11411c-0.95061,-0.31992 -1.82259,-0.98761 -2.82432,-1.03789c-0.69217,-0.03474 -1.36947,0.35724 -2.05905,0.2881c-0.85316,-0.08555 -1.64208,-0.49436 -2.46312,-0.74154c-11.94669,-4.02052 -23.89337,-8.04104 -35.84006,-12.06156c-0.56052,1.66555 -1.12104,3.33109 -1.68156,4.99663c-0.31992,0.95061 -0.98761,1.82259 -1.03789,2.82432c-0.03474,0.69217 0.34325,1.36821 0.2881,2.05905c-0.04932,0.6179 -0.52929,1.14591 -0.59314,1.76248c-0.20001,1.93153 0.99058,4.19091 0.86429,6.17716c-0.03933,0.61862 -0.5184,1.14713 -0.59314,1.76248c-0.18203,1.49858 0.7885,2.91563 1.11174,4.39022c0.35153,1.60368 0.45117,3.27883 1.02257,4.81795c0.50408,1.35777 1.24171,2.6894 1.33528,4.1347c0.48864,0.49146 1.15776,0.85362 1.46591,1.47438c0.30815,0.62076 -0.01283,1.43476 0.2881,2.05905c0.23164,0.48054 0.90396,0.61068 1.20958,1.04792c1.38555,1.98232 2.51547,4.53925 4.68543,5.95281c1.03878,0.67668 2.46762,0.539 3.52497,1.18629c0.59107,0.36185 0.89357,1.08357 1.46591,1.47438c1.09525,0.74787 3.36826,1.04615 4.63964,1.47402c1.76248,0.59314 3.52497,1.18629 5.28744,1.77943c0.95061,0.31992 1.82259,0.98761 2.82432,1.03789c0.69217,0.03474 1.36821,-0.34325 2.05905,-0.2881c1.03742,0.08281 2.08547,0.52784 3.10554,0.32159c0.24782,-0.03467 0.77165,-0.11004 1.38821,-0.19585c0.04506,-0.17687 0.07523,-0.35684 0.08448,-0.5412c0.03474,-0.69217 -0.35724,-1.36947 -0.2881,-2.05905c0.25031,-2.49637 1.7184,-5.36579 2.52097,-7.75056c0.2272,-0.6751 1.26112,-3.80989 1.49169,-4.17276c1.7521,-2.75743 5.49029,-5.82671 8.49322,-6.88975c0.50288,-0.17802 1.12199,0.13933 1.59703,-0.10338c0.61715,-0.31532 0.83027,-1.21015 1.47438,-1.46591c3.23403,-1.28412 4.08163,0.27925 6.82824,-0.27609c0.78296,-0.10955 4.32108,-0.62536 4.83409,-0.59274c0.61862,0.03933 1.14458,0.54382 1.76248,0.59314c0.1606,0.01282 0.32055,0.00037 0.48013,-0.02542c0.55785,-0.34149 0.78882,-1.14454 1.38965,-1.41901zM282.61252,203.98937l-1.39114,1.20542c-0.15955,0.65229 -0.35808,1.27468 -0.68522,1.78953c-1.55174,2.44211 -3.88725,3.47839 -6.13036,4.9828c-0.817,0.54794 -1.60147,1.21595 -2.1228,2.05018c-0.41304,0.66093 -0.34077,1.6086 -0.88905,2.16251c-0.7796,0.7876 -1.97983,1.01258 -2.88568,1.65096c-0.69889,0.49253 -1.13846,1.3352 -1.90085,1.72225c-0.61796,0.31372 -1.43829,-0.02005 -2.05905,0.2881c-0.62076,0.30815 -0.98292,0.97727 -1.47438,1.46591c-1.68586,0.31617 -3.24282,1.12009 -4.8767,1.64215c-1.98518,0.63431 -4.58354,0.71766 -6.6628,0.97261c-0.92365,0.11326 -1.84673,0.36952 -2.77504,0.30464c-0.4637,-0.03241 -0.80601,-0.6608 -1.26494,-0.58699c-0.86551,0.13921 -1.48561,1.06189 -2.35562,1.16934c-0.7735,0.09553 -1.48384,-0.52869 -2.26002,-0.5993c-1.38038,-0.12556 -2.73482,0.66415 -4.11811,0.57619c-0.61862,-0.03933 -1.14591,-0.52929 -1.76248,-0.59314c-2.61104,-0.27038 -5.55792,1.32268 -8.23621,1.15239c-0.61862,-0.03933 -1.14458,-0.54382 -1.76248,-0.59314c-0.69084,-0.05515 -1.36821,0.34325 -2.05905,0.2881c-0.37197,-0.02969 -0.71135,-0.21544 -1.05709,-0.37253c-0.60779,0.39353 -1.45065,0.59702 -2.58384,0.21565c-0.12041,-0.04052 -0.23421,-0.08432 -0.34175,-0.13106c-0.39299,0.10035 -0.78639,0.1991 -1.18192,0.25444c-5.68111,0.62367 -10.6918,-1.29121 -16.10962,-3.11451c-1.81965,-0.61238 -4.31161,-1.09087 -5.93524,-2.08483c-0.59107,-0.36185 -0.89357,-1.08357 -1.46591,-1.47438c-1.02382,-0.69911 -2.47859,-0.52141 -3.52497,-1.18629c-1.53651,-0.97631 -4.22042,-3.74127 -5.27937,-5.24912c-0.50382,-0.71739 -0.67673,-1.63049 -1.16934,-2.35562c-0.48046,-0.70724 -1.3352,-1.13846 -1.72225,-1.90085c-0.31372,-0.61796 0.02005,-1.43829 -0.2881,-2.05905c-0.30815,-0.62076 -0.97727,-0.98292 -1.46591,-1.47438c-0.30434,-1.6228 -1.02081,-3.141 -1.57959,-4.69466c-0.96081,-2.67144 -1.62558,-6.21059 -2.17192,-9.01075c-0.19047,-0.97622 -0.39099,-1.97158 -0.33723,-2.96475c0.03351,-0.61897 0.52929,-1.14591 0.59314,-1.76248c0.11838,-1.14317 -0.41978,-2.26138 -0.55965,-3.40211c-0.11326,-0.92365 -0.36369,-1.84635 -0.30464,-2.77504c0.03933,-0.61862 0.54382,-1.14458 0.59314,-1.76248c0.05515,-0.69084 -0.35724,-1.36947 -0.2881,-2.05905c0.04603,-0.45903 1.10004,-3.52839 1.33468,-4.2256c0.79086,-2.34997 1.58171,-4.69995 2.37257,-7.04992c0,0 0.57387,-1.70522 2.14657,-2.07845c0.15168,-0.1248 0.3101,-0.22597 0.47139,-0.30739c1.16601,-0.58864 2.48197,-0.14577 2.48197,-0.14577c12.63112,4.25086 25.26223,8.50171 37.89335,12.75257c0.96074,0.4024 2.08449,0.05273 3.1209,0.15664c0.85316,0.08555 1.64549,0.48329 2.46312,0.74154c2.36276,0.74629 4.70147,1.58223 7.04992,2.37257c0.95061,0.31992 1.82259,0.98761 2.82432,1.03789c0.69217,0.03474 1.36947,-0.35724 2.05905,-0.2881c0.50359,0.0505 4.74084,1.50808 5.10684,1.63125c2.05623,0.692 4.11246,1.384 6.16868,2.076c0.95061,0.31992 1.82259,0.98761 2.82432,1.03789c0.69217,0.03474 1.36947,-0.35724 2.05905,-0.2881c1.89421,0.18994 4.16843,1.31544 5.98808,1.92782c0.96074,0.4024 2.08449,0.05273 3.1209,0.15664c1.73606,0.17407 3.59546,1.6945 5.28744,1.77943c0.69217,0.03474 1.36947,-0.35724 2.05905,-0.2881c0.45903,0.04603 3.52839,1.10004 4.2256,1.33468l1.47167,0.49527c0.36281,-1.07805 0.72561,-2.1561 1.08842,-3.23415l0.29657,-0.88124c0,0 0.98758,-2.93453 3.92211,-1.94695c2.93453,0.98758 1.94695,3.92211 1.94695,3.92211c-0.98857,2.93747 -2.27371,6.75618 -3.26229,9.69365c-0.23464,0.69721 -1.25082,3.7793 -1.49169,4.17276c-0.11943,0.19509 -0.27806,0.35874 -0.45107,0.51103c0.20601,1.05686 -0.51541,2.1667 -0.72639,3.24737z" fill="#000000" stroke="none" stroke-width="0.5"/><path d="M187.62153,168.40958c11.94669,4.02052 23.91179,8.02996 35.85847,12.05048c0.82104,0.24718 1.61367,0.65552 2.46683,0.74107c0.68958,0.06914 1.37024,-0.32288 2.06241,-0.28814c1.00174,0.05028 1.8785,0.71855 2.82912,1.03847c2.93551,0.98791 6.45046,2.81268 9.52737,3.1212c0.68958,0.06914 1.36831,-0.32151 2.06048,-0.28677c1.31119,0.06581 2.46437,0.91929 3.70864,1.33803c2.64242,0.88927 5.27642,1.83586 7.93479,2.67553c0.81762,0.25825 1.61055,0.65751 2.46371,0.74306c0.68958,0.06914 1.36702,-0.32246 2.05919,-0.28773c1.32456,0.06649 3.31615,1.20559 4.58754,1.63346c0.82104,0.24718 1.6102,0.65701 2.46336,0.74256c0.68958,0.06914 1.36691,-0.32272 2.05908,-0.28798c1.69199,0.08493 3.55173,1.60723 5.28779,1.78131c0.68958,0.06914 1.36689,-0.32282 2.05905,-0.28808c1.00174,0.05028 1.87384,0.71884 2.82444,1.03876l1.48116,0.49885c-0.23644,0.87708 -0.28422,1.84054 -0.79233,2.58467c-0.39081,0.57234 -1.1125,0.87569 -1.47434,1.46676c-0.92896,1.51746 -0.83738,3.84455 -1.7795,5.2908c-1.0699,1.64241 -2.99312,2.17867 -4.47872,3.222c-0.39794,0.27947 -3.56938,3.50184 -3.77541,3.81666c-0.25454,0.38894 0.03683,1.04054 -0.29752,1.36346c-0.46774,0.45174 -1.2832,0.3303 -1.82585,0.6886c-0.44517,0.29394 -0.56777,0.97904 -1.04831,1.21068c-0.62429,0.30093 -1.4386,-0.01928 -2.05936,0.28887c-0.62076,0.30815 -0.98358,0.97876 -1.47504,1.46739c-1.38128,0.08942 -2.64473,0.82551 -3.95387,1.27504c-1.15465,0.39648 -2.42461,0.3006 -3.63365,0.46976c-1.1382,0.15925 -2.2591,0.66583 -3.40366,0.56172c-0.77617,-0.0706 -1.48724,-0.69397 -2.26074,-0.59844c-0.87002,0.10745 -1.49216,1.03226 -2.35767,1.17146c-0.45893,0.07382 -0.80173,-0.55413 -1.26543,-0.58654c-1.3827,-0.09663 -2.74322,0.72191 -4.12192,0.57914c-0.61658,-0.06385 -1.14532,-0.55291 -1.76395,-0.59224c-2.67829,-0.17029 -5.63721,1.42674 -8.24826,1.15636c-0.61658,-0.06385 -1.14739,-0.54363 -1.7653,-0.59296c-0.69084,-0.05515 -1.3716,0.34312 -2.06244,0.28798c-0.6179,-0.04932 -1.14686,-0.55423 -1.76548,-0.59356c-0.51301,-0.03262 -4.05785,0.4811 -4.84081,0.59065c-1.02008,0.20625 -2.07189,-0.24076 -3.10931,-0.32356c-0.69084,-0.05515 -1.36868,0.32165 -2.06084,0.28691c-1.00174,-0.05028 -1.87662,-0.72033 -2.82723,-1.04025c-1.76248,-0.59314 -3.52892,-1.19068 -5.2914,-1.78382c-1.27139,-0.42787 -3.54661,-0.72959 -4.64186,-1.47747c-0.57234,-0.39081 -0.87576,-1.11434 -1.46683,-1.47619c-1.05735,-0.64728 -2.48712,-0.51181 -3.5259,-1.18849c-2.16997,-1.41356 -3.30148,-3.97646 -4.68704,-5.95878c-0.30561,-0.43724 -0.97808,-0.56838 -1.20973,-1.04893c-0.30093,-0.62429 0.01987,-1.44 -0.28827,-2.06076c-0.30815,-0.62076 -0.97734,-0.98418 -1.46598,-1.47564c-0.09356,-1.44529 -0.83114,-2.78014 -1.33522,-4.13791c-0.5714,-1.53911 -0.6706,-3.21774 -1.02213,-4.82142c-0.32323,-1.47459 -1.2931,-2.89446 -1.11107,-4.39304c0.07475,-0.61535 0.55419,-1.14511 0.59353,-1.76373c0.12629,-1.98625 -1.06294,-4.24905 -0.86293,-6.18058c0.06385,-0.61658 0.54436,-1.14566 0.59368,-1.76357c0.05515,-0.69084 -0.32232,-1.36784 -0.28758,-2.06c0.05028,-1.00174 0.71894,-1.87532 1.03886,-2.82593c0.56052,-1.66555 1.12287,-3.33363 1.68339,-4.99917z" data-paper-data="{&quot;noHover&quot;:false,&quot;origItem&quot;:[&quot;Path&quot;,{&quot;applyMatrix&quot;:true,&quot;segments&quot;:[[[312.82282,400.54054],[0,-5.67568],[0,3.23939]],[[312.55531,410.25502],[-0.87803,-3.11812],[0.60669,2.15452]],[[315.55832,416.26103],[-0.54287,-2.17148],[0.48556,1.94223]],[[315.55832,422.26704],[-0.43972,-1.95311],[1.37751,6.1185]],[[324.56732,440.28505],[-1.65956,-6.21001],[0.51687,1.93413]],[[324.56732,446.29106],[-0.40511,-1.96059],[0.98658,4.7747]],[[332.49294,458.58434],[-2.50846,-4.18076],[2.72806,4.54677]],[[340.58627,472.27873],[-3.33458,-4.12261],[2.94169,3.63688]],[[348.93293,483.55956],[-1.77527,-4.32768],[2.002,1.001]],[[354.93894,486.56257],[-1.58272,-1.58272],[1.58272,1.58272]],[[357.94194,492.56857],[-1.56427,-1.60096],[1.20408,1.23233]],[[362.72398,494.53022],[-1.3859,-1.02358],[6.28328,4.6406]],[[383.19843,507.92517],[-8.09847,-2.09154],[3.8768,1.00124]],[[395.21044,507.92517],[-3.90335,-0.89213],[2.18204,0.49872]],[[401.21645,510.92817],[-2.15452,-0.60669],[4.12299,1.16099]],[[416.93694,510.66066],[-4.3325,0],[6.00601,0]],[[434.95495,510.66066],[-6.00601,0],[3.23939,0]],[[444.66944,510.92817],[-3.11812,0.87803],[2.15452,-0.60669]],[[450.67544,507.92517],[-2.17148,0.54287],[3.26086,-0.81521]],[[460.51285,505.71038],[-2.91,1.68216],[2.2838,-1.1419]],[[474.69947,498.91616],[-1.60393,0.42863],[1.93413,-0.51687]],[[480.70547,498.91616],[-1.94223,0.48556],[2.17148,-0.54287]],[[486.71148,495.91316],[-2.17148,0.54287],[1.94223,-0.48556]],[[492.71749,495.91316],[-1.95311,0.43972],[8.27099,-1.86212]],[[516.74151,483.90114],[-8.37371,2.23778],[1.93413,-0.51687]],[[522.74752,483.90114],[-1.95311,0.43972],[4.3673,-0.98325]],[[534.75953,477.89514],[-4.33201,1.12859],[1.45279,-0.37849]],[[539.23623,478.38883],[-1.32877,0.69873],[2.50592,-1.31773]],[[545.24223,472.38283],[-2.55245,1.22515],[2.26928,-1.08923]],[[552.77755,471.88913],[-2.4486,0.58346],[3.61075,-0.86038]],[[562.61495,466.67134],[-3.31997,1.65999],[3.52664,-1.76332]],[[573.252,461.49719],[-3.12598,2.40308],[3.54423,-2.72461]],[[584.04004,453.52953],[-4.136,1.69663],[1.001,-2.002]],[[587.04305,447.52353],[-1.58272,1.58272],[1.58272,-1.58272]],[[593.04905,444.52052],[-1.60096,1.56427],[1.23233,-1.20408]],[[595.0107,439.73848],[-1.05988,1.35834],[1.29196,-1.65578]],[[599.89033,435.75275],[-0.9664,1.86463],[0.69082,-1.3329]],[[599.39664,431.27604],[-0.37849,1.45279],[0.30635,-1.1759]],[[607.02271,415.71446],[-0.9302,1.2654],[3.47266,-4.72402]],[[617.41466,401.24601],[-1.58305,6.1296],[1.39399,-5.39753]],[[617.41466,383.228],[-1.28034,5.60191],[0.49872,-2.18204]],[[620.41766,377.22199],[-0.60669,2.15452],[0.78879,-2.80121]],[[620.18232,368.4985],[0.17978,2.92831],[0,0]],[[615.13514,368.4985],[0,0],[-3.23939,0]],[[605.42065,368.23099],[3.11812,-0.87803],[-2.15452,0.60669]],[[599.41465,371.23399],[2.18204,-0.49872],[-5.49343,1.25555]],[[581.39663,371.23399],[5.26669,-1.48304],[-2.15452,0.60669]],[[575.39062,374.23699],[2.18204,-0.49872],[-2.69967,0.61702]],[[567.08709,374.5045],[2.76785,-0.08917],[-4.3325,0]],[[551.3666,374.23699],[4.12299,-1.16099],[-2.15452,0.60669]],[[545.36059,377.24],[2.18204,-0.49872],[-2.69967,0.61702]],[[537.05706,377.50751],[2.7688,-0.05176],[-9.00229,0.16829]],[[510.03003,377.50751],[9.00457,0],[-4.2401,0]],[[497.31254,377.24],[4.08137,-1.14927],[-2.15452,0.60669]],[[491.30654,380.243],[2.18204,-0.49872],[-9.73626,2.22527]],[[458.97898,380.51051],[10.00334,0],[-3.23939,0]],[[449.2645,380.243],[3.11812,-0.87803],[-2.15452,0.60669]],[[443.25849,383.246],[2.18204,-0.49872],[-2.69967,0.61702]],[[434.95495,383.51351],[2.76785,-0.08917],[-40.71071,0]],[[312.82282,383.51351],[40.71071,0],[0,5.67568]]],&quot;closed&quot;:true}]}" fill="#ff0000" stroke="none" stroke-width="0.5"/><path d="M259.92452,212.86764c-1.00342,-1.25329 -0.25283,-3.28041 -0.96669,-4.71847c-0.36592,-0.73714 -1.10429,-1.24714 -1.79385,-1.69634c-3.01246,-1.96238 -7.03574,-1.41247 -10.22366,-2.37221c-1.54626,-0.64763 -2.78728,-0.11969 -4.46396,0.11491c-2.24945,0.31474 -3.48546,0.43954 -5.52607,1.4525c-0.93336,0.46332 -1.81413,1.07334 -2.81765,1.35405c-0.33296,0.09313 -0.65368,-0.33055 -0.99668,-0.2871c-0.17106,0.02167 0.38275,0.19576 0.36433,0.3672c-0.22819,2.12389 -2.11926,4.25904 -2.22418,6.34929c-0.03474,0.69217 0.34325,1.36821 0.2881,2.05905c-0.05951,0.74553 -0.94716,1.48798 -0.61462,2.15789c0.22677,0.45682 0.9488,0.38222 1.44262,0.5097c0,0 0.93159,0.31352 1.56835,1.11215c2.30053,-0.36966 4.63731,-0.81155 6.9356,-0.94471c4.57193,-0.2649 9.29639,-0.52172 13.70928,-1.88566c2.08654,-0.64491 2.56517,-2.10374 4.72079,-3.11539c0.10075,-0.04728 0.41977,-0.11498 0.85157,-0.19135c-0.09084,-0.0805 -0.17565,-0.16852 -0.25329,-0.2655zM225.4029,220.40181c-0.55881,-1.12573 -0.59663,-2.46591 -0.59767,-3.7227c-0.00051,-0.61987 0.54382,-1.14458 0.59314,-1.76248c0.05515,-0.69084 -0.35724,-1.36947 -0.2881,-2.05905c0.23174,-2.31107 1.58384,-5.59971 2.52097,-7.75056c0.4684,-1.07504 0.66182,-2.39281 1.55062,-3.15776c0.81822,-0.70421 2.10847,-0.49005 3.12143,-0.8633c1.64513,-0.60619 3.04454,-1.7946 4.71125,-2.33868c3.48421,-1.13738 8.4871,-1.56348 11.90096,-0.53572c0.96074,0.4024 2.08449,0.05273 3.1209,0.15664c1.85756,0.18626 4.20949,1.29201 5.98808,1.92782c0.8074,0.28863 1.68658,0.4387 2.41028,0.89855c0.5578,0.35443 3.8287,3.71551 4.0698,4.20119c0.45388,0.91433 0.52731,1.98735 0.58113,3.00671c0.01135,0.21508 -0.35473,0.29953 -0.39543,0.51104c-0.03257,0.16932 0.2448,-0.24289 0.3672,-0.36433l2.37044,2.73565c0,0 0.26271,0.52922 0.32742,1.24005c0.3091,0.26168 0.59752,0.62324 0.84192,1.11558c1.3767,2.77335 -1.39665,4.15006 -1.39665,4.15006l-2.12547,0.8777c-1.11088,0.15543 -2.3594,-0.17139 -3.34544,0.36335c-1.83194,0.9935 -3.32374,2.64785 -5.29485,3.32445c-0.75128,0.25788 -1.57942,0.19232 -2.35498,0.36383c-4.36202,0.96463 -8.30705,1.54444 -12.76248,1.78388c-2.65632,0.14275 -5.38171,0.76086 -8.01776,1.12969c0,0 -2.42768,0.33968 -3.26508,-1.74554c-2.07862,-0.74118 -3.39299,-0.99084 -4.63162,-3.48605z" fill="#000000" stroke="none" stroke-width="0.5"/><path d="M260.20876,213.1339c-0.4318,0.07637 -0.75083,0.14456 -0.85158,0.19183c-2.15562,1.01164 -2.63655,2.481 -4.72309,3.12591c-4.41289,1.36395 -9.1862,1.63243 -13.75813,1.89734c-2.29829,0.13316 -4.64193,0.56662 -6.94246,0.93627c-0.63675,-0.79863 -1.56996,-1.11553 -1.56996,-1.11553c-0.49382,-0.12747 -1.21655,-0.05478 -1.44332,-0.51159c-0.33254,-0.6699 0.5541,-1.41623 0.61361,-2.16176c0.05515,-0.69084 -0.32337,-1.37133 -0.28862,-2.06349c0.10492,-2.09025 1.99885,-4.23991 2.22705,-6.36381c0.01842,-0.17143 -0.53522,-0.34589 -0.36416,-0.36756c0.343,-0.04344 0.66391,0.37986 0.99686,0.28673c1.00352,-0.28071 1.88798,-0.89646 2.82135,-1.35979c2.04061,-1.01297 3.28977,-1.1472 5.53921,-1.46194c1.67668,-0.2346 2.93298,-0.76419 4.47924,-0.11655c3.18793,0.95975 7.2339,0.42555 10.24636,2.38793c0.68956,0.4492 1.43005,0.96395 1.79596,1.70109c0.71386,1.43806 -0.03501,3.47556 0.96841,4.72885c0.07764,0.09697 0.16243,0.18556 0.25328,0.26606z" data-paper-data="{&quot;noHover&quot;:false,&quot;origItem&quot;:[&quot;Path&quot;,{&quot;applyMatrix&quot;:true,&quot;selected&quot;:true,&quot;segments&quot;:[[[289.9239,222.54154],[0.16877,0.10842],[-2.18128,-1.40134],7],[[286.01402,215.81782],[1.83327,1.83327],[-0.93972,-0.93972],7],[[282.39478,214.14552],[1.28675,0.33232],[-5.62136,-1.45179],7],[[265.52553,215.78078],[5.37349,-0.17311],[-2.70014,-0.19477],7],[[258.75258,218.25592],[2.44534,-1.22267],[-3.28068,1.64034],7],[[251.04304,223.32532],[2.60142,-2.60142],[-1.18987,1.18987],7],[[247.42806,226.849],[1.39131,-0.94651],[-0.46162,0.31404],7],[[245.75476,226.92295],[0.50258,-0.24316],[-0.25065,0.12127],7],[[246.5015,227.2973],[-0.06011,-0.27187],[0.74472,3.36817],7],[[246.36775,238.16054],[-0.91606,-3.25319],[0.30334,1.07726],7],[[247.86925,241.16355],[-0.27143,-1.08574],[0.29292,1.17169],7],[[248.04004,244.78278],[-0.85401,-0.85401],[0.58236,0.58236],7],[[250.51051,244.81982],[-0.82145,0.05926],[0,0],7],[[253.48372,245.71416],[-1.38591,-0.89434],[3.33058,-1.75071],7],[[263.61211,240.69592],[-3.44896,1.3876],[6.86092,-2.76032],7],[[283.623,230.74859],[-6.05142,4.3605],[2.86129,-2.06177],7],[[289.24354,223.54891],[-2.77812,2.65863],[0.12984,-0.12425],7],[[290.44831,222.81742],[-0.62154,0.33929],[-0.1805,-0.07642],7]],&quot;closed&quot;:true}]}" fill="#ffa0a0" stroke="none" stroke-width="0.5"/><path d="M322.92462,209.54076c-16.20116,48.14058 -66.02557,74.81837 -111.28593,59.58652c-45.26036,-15.23185 -68.81751,-66.60536 -52.61635,-114.74594c16.20116,-48.14058 66.02556,-74.81835 111.28592,-59.5865c45.26036,15.23185 68.81752,66.60534 52.61636,114.74592z" fill="#fbff00" stroke="#000000" stroke-width="10"/><path d="M239.02687,138.99083c-4.18032,12.42153 -17.03632,19.30509 -28.71468,15.37488c-11.67836,-3.93022 -17.75671,-17.18593 -13.57639,-29.60745c4.18032,-12.42153 17.03632,-19.30509 28.71468,-15.37487c11.67836,3.93022 17.75672,17.18592 13.5764,29.60744z" fill="#f3f3f3" stroke="#000000" stroke-width="5"/><path d="M207.14134,128.71653c-2.09243,-2.96441 -0.59999,-5.73618 0.34652,-8.54866c0.25003,-0.74296 0.59038,-1.85323 1.02408,-2.87685c0.03261,-0.20462 0.08561,-0.42051 0.16221,-0.64811c0.87841,-2.61014 3.29713,-2.11736 3.82113,-1.97652c1.24576,-1.54726 3.33785,-0.8432 3.33785,-0.8432c0.61409,0.22893 1.28185,0.35335 1.88021,0.6129c0.44376,0.14106 0.90779,0.39194 1.27813,0.83107c1.63063,1.30069 2.0044,2.4807 3.02516,4.53701c0.04427,0.08918 0.0888,0.17939 0.13344,0.27055c0.6688,0.36517 1.18379,0.77077 1.33246,1.20384c0.2654,0.77304 0.27059,1.62823 0.10272,2.46949c0.52221,2.09758 0.39781,4.26473 -1.50063,5.99285c-0.92084,0.83822 -2.39153,0.70138 -3.60707,0.97162c-3.14917,0.70014 -9.02754,2.1414 -11.14203,-1.41853c-0.0776,-0.13066 -0.12772,-0.30812 -0.15426,-0.52287c-0.01357,-0.01791 -0.02688,-0.0361 -0.03992,-0.05458z" fill="#000000" stroke="none" stroke-width="0.5"/><path d="M297.98332,154.25045c-4.18032,12.42153 -17.03633,19.30509 -28.71468,15.37488c-11.67836,-3.93022 -17.75671,-17.18593 -13.57639,-29.60745c4.18032,-12.42153 17.03632,-19.30509 28.71468,-15.37488c11.67836,3.93022 17.75672,17.18593 13.5764,29.60745z" fill="#f3f3f3" stroke="#000000" stroke-width="5"/><path d="M266.0893,146.91643c-2.09243,-2.96441 -0.59999,-5.73619 0.34652,-8.54866c0.25003,-0.74295 0.59039,-1.85323 1.02408,-2.87685c0.03261,-0.20463 0.08561,-0.42051 0.16221,-0.64811c0.87841,-2.61014 3.29713,-2.11736 3.82113,-1.97652c1.24576,-1.54726 3.33785,-0.8432 3.33785,-0.8432c0.61409,0.22893 1.28185,0.35335 1.88022,0.61291c0.44375,0.14105 0.9078,0.39193 1.27813,0.83107c1.63063,1.30069 2.0044,2.4807 3.02515,4.53701c0.04427,0.08918 0.0888,0.17939 0.13345,0.27055c0.6688,0.36517 1.18379,0.77078 1.33246,1.20383c0.26539,0.77304 0.27059,1.62823 0.10272,2.46949c0.52221,2.09758 0.39782,4.26473 -1.50063,5.99285c-0.92084,0.83822 -2.39154,0.70138 -3.60707,0.97163c-3.14917,0.70014 -9.02754,2.1414 -11.14203,-1.41853c-0.0776,-0.13066 -0.12772,-0.30812 -0.15426,-0.52287c-0.01357,-0.01791 -0.02688,-0.0361 -0.03992,-0.05458z" fill="#000000" stroke="none" stroke-width="0.5"/><path d="M254.0264,207.1535c-0.50778,0.1635 -1.12199,-0.13933 -1.59703,0.10338c-0.61715,0.31532 -0.84594,1.17376 -1.47438,1.46591c-0.30172,0.14026 -0.65048,-0.0121 -0.99215,-0.08648c-0.03369,0.1032 -0.06806,0.21078 -0.104,0.32368c0.00212,0.00914 0.00278,0.01835 0.00179,0.0276c-0.06622,0.61633 -0.39543,1.17499 -0.59314,1.76248c-0.98857,2.93747 -1.97714,5.87494 -2.96571,8.81241c-0.2711,0.80556 -0.5422,1.61112 -0.81331,2.41669c0.41985,0.09749 0.74703,0.64255 1.1762,0.57352c0.86551,-0.13921 1.48561,-1.06189 2.35562,-1.16934c0.7735,-0.09553 1.48384,0.52869 2.26002,0.5993c1.14455,0.10411 2.26393,-0.4004 3.40211,-0.55965c1.20905,-0.16917 2.47781,-0.0714 3.63246,-0.46788c1.30915,-0.44952 2.57138,-1.18331 3.95266,-1.27273c0.49146,-0.48864 0.85362,-1.15776 1.47438,-1.46591c0.62076,-0.30815 1.43476,0.01283 2.05905,-0.2881c0.48054,-0.23164 0.60274,-0.91564 1.04792,-1.20958c0.54265,-0.3583 1.35782,-0.23599 1.82557,-0.68772c0.33436,-0.32292 0.04269,-0.97351 0.29723,-1.36246c0.14201,-0.21699 1.69247,-1.81375 2.77266,-2.87669c-0.4075,-0.13053 -0.80593,-0.27971 -1.16883,-0.50187c-0.59107,-0.36185 -0.89357,-1.08357 -1.46591,-1.47438c-1.55304,-1.06047 -4.58844,-1.45679 -6.40213,-2.06717c-0.95061,-0.31992 -1.82259,-0.98761 -2.82432,-1.03789c-0.69217,-0.03474 -1.36947,0.35724 -2.05905,0.2881c-0.64213,-0.06439 -1.30114,-0.31297 -1.9623,-0.60498c-0.60977,0.27534 -1.21386,0.5596 -1.83541,0.75973zM277.6363,206.10365c-1.12262,-0.34847 -2.38144,-0.99978 -3.15916,-1.26152c-0.2613,-0.08794 -0.553,-0.20582 -0.86306,-0.33819c0.29284,0.37426 0.51999,0.85316 0.55916,1.4538c0.24465,0.15948 0.50327,0.2884 0.78774,0.36184l1.72472,1.99045c0.19623,-0.20318 0.37743,-0.4261 0.53915,-0.67435c0.02351,-0.03609 0.04638,-0.07272 0.06863,-0.10988c-0.02679,-0.55794 0.12165,-1.03189 0.34283,-1.42214zM244.31269,205.62393c-0.59048,0.09889 -1.18109,0.19237 -1.77471,0.15464c-0.7464,-0.04746 -1.56602,-1.07184 -2.15789,-0.61462c-0.54844,0.42368 -0.85087,1.16336 -1.47438,1.46591c-0.76923,0.37325 -1.70239,0.22625 -2.52107,0.47281c-1.65585,0.49868 -4.14519,2.83341 -5.06433,4.24439c-0.54746,0.84041 -0.56097,1.92656 -0.88088,2.87716c-0.61038,1.81369 -2.1299,4.47109 -2.22418,6.34929c-0.03474,0.69217 0.35724,1.36947 0.2881,2.05905c-0.00053,0.00528 -0.00119,0.01092 -0.00199,0.01689c0.33857,-0.08492 0.67717,-0.16871 1.01906,-0.14143c0.6179,0.04932 1.14591,0.52929 1.76248,0.59314c2.43335,0.25198 5.15836,-1.11447 7.68583,-1.1638c0.48798,-1.45001 0.97597,-2.90002 1.46395,-4.35003c0.88971,-2.64372 1.77943,-5.28744 2.66914,-7.93116c0.3963,-1.17757 0.73831,-2.68713 1.21084,-4.03224zM252.9213,197.89712c0.62085,-0.28361 4.07757,-0.73096 5.06576,-0.86923c2.39108,-0.33455 4.27328,-0.78148 6.59657,0.0004c0.68635,-0.09603 1.36821,-0.34325 2.05905,-0.2881c0.6179,0.04932 1.14458,0.54382 1.76248,0.59314c0.69084,0.05515 1.36947,-0.35724 2.05905,-0.2881c3.0366,0.30448 6.63222,2.08427 9.51304,3.11411c0.25682,0.09181 0.50775,0.17778 0.75229,0.26194c0.28329,-0.65744 0.35153,-1.41722 0.54156,-2.12216l-1.48111,-0.49845c-0.95061,-0.31992 -1.82259,-0.98761 -2.82432,-1.03789c-0.69217,-0.03474 -1.36947,0.35724 -2.05905,0.2881c-1.73606,-0.17407 -3.59546,-1.6945 -5.28744,-1.77943c-0.69217,-0.03474 -1.36947,0.35724 -2.05905,0.2881c-0.85316,-0.08555 -1.64208,-0.49436 -2.46312,-0.74154c-1.27139,-0.42787 -3.26225,-1.56455 -4.5868,-1.63103c-0.69217,-0.03474 -1.36947,0.35724 -2.05905,0.2881c-0.85316,-0.08555 -1.64549,-0.48329 -2.46312,-0.74154c-2.65837,-0.83966 -5.28875,-1.77987 -7.93116,-2.66914c-1.24427,-0.41874 -2.39438,-1.26865 -3.70556,-1.33446c-0.69217,-0.03474 -1.36947,0.35724 -2.05905,0.2881c-3.0769,-0.30853 -6.57753,-2.1262 -9.51304,-3.11411c-0.95061,-0.31992 -1.82259,-0.98761 -2.82432,-1.03789c-0.69217,-0.03474 -1.36947,0.35724 -2.05905,0.2881c-0.85316,-0.08555 -1.64208,-0.49436 -2.46312,-0.74154c-11.94669,-4.02052 -23.89337,-8.04104 -35.84006,-12.06156c-0.56052,1.66555 -1.12104,3.33109 -1.68156,4.99663c-0.31992,0.95061 -0.98761,1.82259 -1.03789,2.82432c-0.03474,0.69217 0.34325,1.36821 0.2881,2.05905c-0.04932,0.6179 -0.52929,1.14591 -0.59314,1.76248c-0.20001,1.93153 0.99058,4.19091 0.86429,6.17716c-0.03933,0.61862 -0.5184,1.14713 -0.59314,1.76248c-0.18203,1.49858 0.7885,2.91563 1.11174,4.39022c0.35153,1.60368 0.45117,3.27883 1.02257,4.81795c0.50408,1.35777 1.24171,2.6894 1.33528,4.1347c0.48864,0.49146 1.15776,0.85362 1.46591,1.47438c0.30815,0.62076 -0.01283,1.43476 0.2881,2.05905c0.23164,0.48054 0.90396,0.61068 1.20958,1.04792c1.38555,1.98232 2.51547,4.53925 4.68543,5.95281c1.03878,0.67668 2.46762,0.539 3.52497,1.18629c0.59107,0.36185 0.89357,1.08357 1.46591,1.47438c1.09525,0.74787 3.36826,1.04615 4.63964,1.47402c1.76248,0.59314 3.52497,1.18629 5.28744,1.77943c0.95061,0.31992 1.82259,0.98761 2.82432,1.03789c0.69217,0.03474 1.36821,-0.34325 2.05905,-0.2881c1.03742,0.08281 2.08547,0.52784 3.10554,0.32159c0.24782,-0.03467 0.77165,-0.11004 1.38821,-0.19585c0.04506,-0.17687 0.07523,-0.35684 0.08448,-0.5412c0.03474,-0.69217 -0.35724,-1.36947 -0.2881,-2.05905c0.25031,-2.49637 1.7184,-5.36579 2.52097,-7.75056c0.2272,-0.6751 1.26112,-3.80989 1.49169,-4.17276c1.7521,-2.75743 5.49029,-5.82671 8.49322,-6.88975c0.50288,-0.17802 1.12199,0.13933 1.59703,-0.10338c0.61715,-0.31532 0.83027,-1.21015 1.47438,-1.46591c3.23403,-1.28412 4.08163,0.27925 6.82824,-0.27609c0.78296,-0.10955 4.32108,-0.62536 4.83409,-0.59274c0.61862,0.03933 1.14458,0.54382 1.76248,0.59314c0.1606,0.01282 0.32055,0.00037 0.48013,-0.02542c0.55785,-0.34149 0.78882,-1.14454 1.38965,-1.41901zM284.55947,207.91148l-1.39114,1.20542c-0.15955,0.65229 -0.35808,1.27468 -0.68522,1.78953c-1.55174,2.44211 -3.88725,3.47839 -6.13036,4.9828c-0.817,0.54794 -1.60147,1.21595 -2.1228,2.05018c-0.41304,0.66093 -0.34077,1.6086 -0.88905,2.16251c-0.7796,0.7876 -1.97983,1.01258 -2.88568,1.65096c-0.69889,0.49253 -1.13846,1.3352 -1.90085,1.72225c-0.61796,0.31372 -1.43829,-0.02005 -2.05905,0.2881c-0.62076,0.30815 -0.98292,0.97727 -1.47438,1.46591c-1.68586,0.31617 -3.24282,1.12009 -4.8767,1.64215c-1.98518,0.63431 -4.58354,0.71766 -6.6628,0.97261c-0.92365,0.11326 -1.84673,0.36952 -2.77504,0.30464c-0.4637,-0.03241 -0.80601,-0.6608 -1.26494,-0.58699c-0.86551,0.13921 -1.48561,1.06189 -2.35562,1.16934c-0.7735,0.09553 -1.48384,-0.52869 -2.26002,-0.5993c-1.38038,-0.12556 -2.73482,0.66415 -4.11811,0.57619c-0.61862,-0.03933 -1.14591,-0.52929 -1.76248,-0.59314c-2.61104,-0.27038 -5.55792,1.32268 -8.23621,1.15239c-0.61862,-0.03933 -1.14458,-0.54382 -1.76248,-0.59314c-0.69084,-0.05515 -1.36821,0.34325 -2.05905,0.2881c-0.37197,-0.02969 -0.71135,-0.21544 -1.05709,-0.37253c-0.60779,0.39353 -1.45065,0.59702 -2.58384,0.21565c-0.12041,-0.04052 -0.23421,-0.08432 -0.34175,-0.13106c-0.39299,0.10035 -0.78639,0.1991 -1.18192,0.25444c-5.68111,0.62367 -10.6918,-1.29121 -16.10962,-3.11451c-1.81965,-0.61238 -4.31161,-1.09087 -5.93524,-2.08483c-0.59107,-0.36185 -0.89357,-1.08357 -1.46591,-1.47438c-1.02382,-0.69911 -2.47859,-0.52141 -3.52497,-1.18629c-1.53651,-0.97631 -4.22042,-3.74127 -5.27937,-5.24912c-0.50382,-0.71739 -0.67673,-1.63049 -1.16934,-2.35562c-0.48046,-0.70724 -1.3352,-1.13846 -1.72225,-1.90085c-0.31372,-0.61796 0.02005,-1.43829 -0.2881,-2.05905c-0.30815,-0.62076 -0.97727,-0.98292 -1.46591,-1.47438c-0.30434,-1.6228 -1.02081,-3.141 -1.57959,-4.69466c-0.96081,-2.67144 -1.62558,-6.21059 -2.17192,-9.01075c-0.19047,-0.97622 -0.39099,-1.97158 -0.33723,-2.96475c0.03351,-0.61897 0.52929,-1.14591 0.59314,-1.76248c0.11838,-1.14317 -0.41978,-2.26138 -0.55965,-3.40211c-0.11326,-0.92365 -0.36369,-1.84635 -0.30464,-2.77504c0.03933,-0.61862 0.54382,-1.14458 0.59314,-1.76248c0.05515,-0.69084 -0.35724,-1.36947 -0.2881,-2.05905c0.04603,-0.45903 1.10004,-3.52839 1.33468,-4.2256c0.79086,-2.34997 1.58171,-4.69995 2.37257,-7.04992c0,0 0.57387,-1.70522 2.14657,-2.07845c0.15168,-0.1248 0.3101,-0.22597 0.47139,-0.30739c1.16601,-0.58864 2.48197,-0.14577 2.48197,-0.14577c12.63112,4.25086 25.26223,8.50171 37.89335,12.75257c0.96074,0.4024 2.08449,0.05273 3.1209,0.15664c0.85316,0.08555 1.64549,0.48329 2.46312,0.74154c2.36276,0.74629 4.70147,1.58223 7.04992,2.37257c0.95061,0.31992 1.82259,0.98761 2.82432,1.03789c0.69217,0.03474 1.36947,-0.35724 2.05905,-0.2881c0.50359,0.0505 4.74084,1.50808 5.10684,1.63125c2.05623,0.692 4.11246,1.384 6.16868,2.076c0.95061,0.31992 1.82259,0.98761 2.82432,1.03789c0.69217,0.03474 1.36947,-0.35724 2.05905,-0.2881c1.89421,0.18994 4.16843,1.31544 5.98808,1.92782c0.96074,0.4024 2.08449,0.05273 3.1209,0.15664c1.73606,0.17407 3.59546,1.6945 5.28744,1.77943c0.69217,0.03474 1.36947,-0.35724 2.05905,-0.2881c0.45903,0.04603 3.52839,1.10004 4.2256,1.33468l1.47167,0.49527c0.36281,-1.07805 0.72561,-2.1561 1.08842,-3.23415l0.29657,-0.88124c0,0 0.98758,-2.93453 3.92211,-1.94695c2.93453,0.98758 1.94695,3.92211 1.94695,3.92211c-0.98857,2.93747 -2.27371,6.75618 -3.26229,9.69365c-0.23464,0.69721 -1.25082,3.7793 -1.49169,4.17276c-0.11943,0.19509 -0.27806,0.35874 -0.45107,0.51103c0.20601,1.05686 -0.51541,2.1667 -0.72639,3.24737z" fill="#000000" stroke="none" stroke-width="0.5"/><path d="M189.56847,172.3317c11.94669,4.02052 23.91179,8.02996 35.85847,12.05048c0.82104,0.24718 1.61367,0.65552 2.46683,0.74107c0.68958,0.06914 1.37024,-0.32288 2.06241,-0.28814c1.00174,0.05028 1.8785,0.71855 2.82912,1.03847c2.93551,0.98791 6.45046,2.81268 9.52737,3.1212c0.68958,0.06914 1.36831,-0.32151 2.06048,-0.28677c1.31119,0.06581 2.46437,0.91929 3.70864,1.33803c2.64242,0.88927 5.27642,1.83586 7.93479,2.67553c0.81762,0.25825 1.61055,0.65751 2.46371,0.74306c0.68958,0.06914 1.36702,-0.32246 2.05919,-0.28773c1.32456,0.06649 3.31615,1.20559 4.58754,1.63346c0.82104,0.24718 1.6102,0.65701 2.46336,0.74256c0.68958,0.06914 1.36691,-0.32272 2.05908,-0.28798c1.69199,0.08493 3.55173,1.60723 5.28779,1.78131c0.68958,0.06914 1.36689,-0.32282 2.05905,-0.28808c1.00174,0.05028 1.87384,0.71884 2.82444,1.03876l1.48116,0.49885c-0.23644,0.87708 -0.28422,1.84054 -0.79233,2.58467c-0.39081,0.57234 -1.1125,0.87569 -1.47434,1.46676c-0.92896,1.51746 -0.83738,3.84455 -1.7795,5.2908c-1.0699,1.64241 -2.99312,2.17867 -4.47872,3.222c-0.39794,0.27947 -3.56938,3.50184 -3.77541,3.81666c-0.25454,0.38894 0.03683,1.04054 -0.29752,1.36346c-0.46774,0.45174 -1.2832,0.3303 -1.82585,0.6886c-0.44517,0.29394 -0.56777,0.97904 -1.04831,1.21068c-0.62429,0.30093 -1.4386,-0.01928 -2.05936,0.28887c-0.62076,0.30815 -0.98358,0.97876 -1.47504,1.46739c-1.38128,0.08942 -2.64473,0.82551 -3.95387,1.27504c-1.15465,0.39648 -2.42461,0.3006 -3.63365,0.46976c-1.1382,0.15925 -2.2591,0.66583 -3.40366,0.56172c-0.77617,-0.0706 -1.48724,-0.69397 -2.26074,-0.59844c-0.87002,0.10745 -1.49216,1.03226 -2.35767,1.17146c-0.45893,0.07382 -0.80173,-0.55413 -1.26543,-0.58654c-1.3827,-0.09663 -2.74322,0.72191 -4.12192,0.57914c-0.61658,-0.06385 -1.14532,-0.55291 -1.76395,-0.59224c-2.67829,-0.17029 -5.63721,1.42674 -8.24826,1.15636c-0.61658,-0.06385 -1.14739,-0.54363 -1.7653,-0.59296c-0.69084,-0.05515 -1.3716,0.34312 -2.06244,0.28798c-0.6179,-0.04932 -1.14686,-0.55423 -1.76548,-0.59356c-0.51301,-0.03262 -4.05785,0.4811 -4.84081,0.59065c-1.02008,0.20625 -2.07189,-0.24076 -3.10931,-0.32356c-0.69084,-0.05515 -1.36868,0.32165 -2.06084,0.28691c-1.00174,-0.05028 -1.87662,-0.72033 -2.82723,-1.04025c-1.76248,-0.59314 -3.52892,-1.19068 -5.2914,-1.78382c-1.27139,-0.42787 -3.54661,-0.72959 -4.64186,-1.47747c-0.57234,-0.39081 -0.87576,-1.11434 -1.46683,-1.47619c-1.05735,-0.64728 -2.48712,-0.51181 -3.5259,-1.18849c-2.16997,-1.41356 -3.30148,-3.97646 -4.68704,-5.95878c-0.30561,-0.43724 -0.97808,-0.56838 -1.20973,-1.04893c-0.30093,-0.62429 0.01987,-1.44 -0.28827,-2.06076c-0.30815,-0.62076 -0.97734,-0.98418 -1.46598,-1.47564c-0.09356,-1.44529 -0.83114,-2.78014 -1.33522,-4.13791c-0.5714,-1.53911 -0.6706,-3.21774 -1.02213,-4.82142c-0.32323,-1.47459 -1.2931,-2.89446 -1.11107,-4.39304c0.07475,-0.61535 0.55419,-1.14511 0.59353,-1.76373c0.12629,-1.98625 -1.06294,-4.24905 -0.86293,-6.18058c0.06385,-0.61658 0.54436,-1.14566 0.59368,-1.76357c0.05515,-0.69084 -0.32232,-1.36784 -0.28758,-2.06c0.05028,-1.00174 0.71894,-1.87532 1.03886,-2.82593c0.56052,-1.66555 1.12287,-3.33363 1.68339,-4.99917z" data-paper-data="{&quot;noHover&quot;:false,&quot;origItem&quot;:[&quot;Path&quot;,{&quot;applyMatrix&quot;:true,&quot;segments&quot;:[[[312.82282,400.54054],[0,-5.67568],[0,3.23939]],[[312.55531,410.25502],[-0.87803,-3.11812],[0.60669,2.15452]],[[315.55832,416.26103],[-0.54287,-2.17148],[0.48556,1.94223]],[[315.55832,422.26704],[-0.43972,-1.95311],[1.37751,6.1185]],[[324.56732,440.28505],[-1.65956,-6.21001],[0.51687,1.93413]],[[324.56732,446.29106],[-0.40511,-1.96059],[0.98658,4.7747]],[[332.49294,458.58434],[-2.50846,-4.18076],[2.72806,4.54677]],[[340.58627,472.27873],[-3.33458,-4.12261],[2.94169,3.63688]],[[348.93293,483.55956],[-1.77527,-4.32768],[2.002,1.001]],[[354.93894,486.56257],[-1.58272,-1.58272],[1.58272,1.58272]],[[357.94194,492.56857],[-1.56427,-1.60096],[1.20408,1.23233]],[[362.72398,494.53022],[-1.3859,-1.02358],[6.28328,4.6406]],[[383.19843,507.92517],[-8.09847,-2.09154],[3.8768,1.00124]],[[395.21044,507.92517],[-3.90335,-0.89213],[2.18204,0.49872]],[[401.21645,510.92817],[-2.15452,-0.60669],[4.12299,1.16099]],[[416.93694,510.66066],[-4.3325,0],[6.00601,0]],[[434.95495,510.66066],[-6.00601,0],[3.23939,0]],[[444.66944,510.92817],[-3.11812,0.87803],[2.15452,-0.60669]],[[450.67544,507.92517],[-2.17148,0.54287],[3.26086,-0.81521]],[[460.51285,505.71038],[-2.91,1.68216],[2.2838,-1.1419]],[[474.69947,498.91616],[-1.60393,0.42863],[1.93413,-0.51687]],[[480.70547,498.91616],[-1.94223,0.48556],[2.17148,-0.54287]],[[486.71148,495.91316],[-2.17148,0.54287],[1.94223,-0.48556]],[[492.71749,495.91316],[-1.95311,0.43972],[8.27099,-1.86212]],[[516.74151,483.90114],[-8.37371,2.23778],[1.93413,-0.51687]],[[522.74752,483.90114],[-1.95311,0.43972],[4.3673,-0.98325]],[[534.75953,477.89514],[-4.33201,1.12859],[1.45279,-0.37849]],[[539.23623,478.38883],[-1.32877,0.69873],[2.50592,-1.31773]],[[545.24223,472.38283],[-2.55245,1.22515],[2.26928,-1.08923]],[[552.77755,471.88913],[-2.4486,0.58346],[3.61075,-0.86038]],[[562.61495,466.67134],[-3.31997,1.65999],[3.52664,-1.76332]],[[573.252,461.49719],[-3.12598,2.40308],[3.54423,-2.72461]],[[584.04004,453.52953],[-4.136,1.69663],[1.001,-2.002]],[[587.04305,447.52353],[-1.58272,1.58272],[1.58272,-1.58272]],[[593.04905,444.52052],[-1.60096,1.56427],[1.23233,-1.20408]],[[595.0107,439.73848],[-1.05988,1.35834],[1.29196,-1.65578]],[[599.89033,435.75275],[-0.9664,1.86463],[0.69082,-1.3329]],[[599.39664,431.27604],[-0.37849,1.45279],[0.30635,-1.1759]],[[607.02271,415.71446],[-0.9302,1.2654],[3.47266,-4.72402]],[[617.41466,401.24601],[-1.58305,6.1296],[1.39399,-5.39753]],[[617.41466,383.228],[-1.28034,5.60191],[0.49872,-2.18204]],[[620.41766,377.22199],[-0.60669,2.15452],[0.78879,-2.80121]],[[620.18232,368.4985],[0.17978,2.92831],[0,0]],[[615.13514,368.4985],[0,0],[-3.23939,0]],[[605.42065,368.23099],[3.11812,-0.87803],[-2.15452,0.60669]],[[599.41465,371.23399],[2.18204,-0.49872],[-5.49343,1.25555]],[[581.39663,371.23399],[5.26669,-1.48304],[-2.15452,0.60669]],[[575.39062,374.23699],[2.18204,-0.49872],[-2.69967,0.61702]],[[567.08709,374.5045],[2.76785,-0.08917],[-4.3325,0]],[[551.3666,374.23699],[4.12299,-1.16099],[-2.15452,0.60669]],[[545.36059,377.24],[2.18204,-0.49872],[-2.69967,0.61702]],[[537.05706,377.50751],[2.7688,-0.05176],[-9.00229,0.16829]],[[510.03003,377.50751],[9.00457,0],[-4.2401,0]],[[497.31254,377.24],[4.08137,-1.14927],[-2.15452,0.60669]],[[491.30654,380.243],[2.18204,-0.49872],[-9.73626,2.22527]],[[458.97898,380.51051],[10.00334,0],[-3.23939,0]],[[449.2645,380.243],[3.11812,-0.87803],[-2.15452,0.60669]],[[443.25849,383.246],[2.18204,-0.49872],[-2.69967,0.61702]],[[434.95495,383.51351],[2.76785,-0.08917],[-40.71071,0]],[[312.82282,383.51351],[40.71071,0],[0,5.67568]]],&quot;closed&quot;:true}]}" fill="#ff0000" stroke="none" stroke-width="0.5"/><path d="M261.87147,216.78975c-1.00342,-1.25329 -0.25283,-3.28041 -0.96669,-4.71847c-0.36592,-0.73714 -1.10429,-1.24714 -1.79385,-1.69634c-3.01246,-1.96238 -7.03574,-1.41247 -10.22366,-2.37221c-1.54626,-0.64763 -2.78728,-0.11969 -4.46396,0.11491c-2.24945,0.31474 -3.48546,0.43954 -5.52607,1.4525c-0.93336,0.46332 -1.81413,1.07334 -2.81765,1.35405c-0.33296,0.09313 -0.65368,-0.33055 -0.99668,-0.2871c-0.17106,0.02167 0.38275,0.19576 0.36433,0.3672c-0.22819,2.12389 -2.11926,4.25904 -2.22418,6.34929c-0.03474,0.69217 0.34325,1.36821 0.2881,2.05905c-0.05951,0.74553 -0.94716,1.48798 -0.61462,2.15789c0.22677,0.45682 0.9488,0.38222 1.44262,0.5097c0,0 0.93159,0.31352 1.56835,1.11215c2.30053,-0.36966 4.63731,-0.81155 6.9356,-0.94471c4.57193,-0.2649 9.29639,-0.52172 13.70928,-1.88566c2.08654,-0.64491 2.56517,-2.10374 4.72079,-3.11539c0.10075,-0.04728 0.41977,-0.11498 0.85157,-0.19135c-0.09084,-0.0805 -0.17565,-0.16852 -0.25329,-0.2655zM227.34984,224.32392c-0.55881,-1.12573 -0.59663,-2.46591 -0.59767,-3.7227c-0.00051,-0.61987 0.54382,-1.14458 0.59314,-1.76248c0.05515,-0.69084 -0.35724,-1.36947 -0.2881,-2.05905c0.23174,-2.31107 1.58384,-5.59971 2.52097,-7.75056c0.4684,-1.07504 0.66182,-2.39281 1.55062,-3.15776c0.81822,-0.70421 2.10847,-0.49005 3.12143,-0.8633c1.64513,-0.60619 3.04454,-1.7946 4.71125,-2.33868c3.48421,-1.13738 8.4871,-1.56348 11.90096,-0.53572c0.96074,0.4024 2.08449,0.05273 3.1209,0.15664c1.85756,0.18626 4.20949,1.29201 5.98808,1.92782c0.8074,0.28863 1.68658,0.4387 2.41028,0.89855c0.5578,0.35443 3.8287,3.71551 4.0698,4.20119c0.45388,0.91433 0.52731,1.98735 0.58113,3.00671c0.01135,0.21508 -0.35473,0.29953 -0.39543,0.51104c-0.03257,0.16932 0.2448,-0.24289 0.3672,-0.36433l2.37044,2.73565c0,0 0.26271,0.52922 0.32742,1.24005c0.3091,0.26168 0.59752,0.62324 0.84192,1.11558c1.3767,2.77335 -1.39665,4.15006 -1.39665,4.15006l-2.12547,0.8777c-1.11088,0.15543 -2.3594,-0.17139 -3.34544,0.36335c-1.83194,0.9935 -3.32374,2.64785 -5.29485,3.32445c-0.75128,0.25788 -1.57942,0.19232 -2.35498,0.36383c-4.36202,0.96463 -8.30705,1.54444 -12.76248,1.78388c-2.65632,0.14275 -5.38171,0.76086 -8.01776,1.12969c0,0 -2.42768,0.33968 -3.26508,-1.74554c-2.07862,-0.74118 -3.39299,-0.99084 -4.63162,-3.48605z" fill="#000000" stroke="none" stroke-width="0.5"/><path d="M262.15571,217.05602c-0.4318,0.07637 -0.75083,0.14456 -0.85158,0.19183c-2.15562,1.01164 -2.63655,2.481 -4.72309,3.12591c-4.41289,1.36395 -9.1862,1.63243 -13.75813,1.89734c-2.29829,0.13316 -4.64193,0.56662 -6.94246,0.93627c-0.63675,-0.79863 -1.56996,-1.11553 -1.56996,-1.11553c-0.49382,-0.12747 -1.21655,-0.05478 -1.44332,-0.51159c-0.33254,-0.6699 0.5541,-1.41623 0.61361,-2.16176c0.05515,-0.69084 -0.32337,-1.37133 -0.28862,-2.06349c0.10492,-2.09025 1.99885,-4.23991 2.22705,-6.36381c0.01842,-0.17143 -0.53522,-0.34589 -0.36416,-0.36756c0.343,-0.04344 0.66391,0.37986 0.99686,0.28673c1.00352,-0.28071 1.88798,-0.89646 2.82135,-1.35979c2.04061,-1.01297 3.28977,-1.1472 5.53921,-1.46194c1.67668,-0.2346 2.93298,-0.76419 4.47924,-0.11655c3.18793,0.95975 7.2339,0.42555 10.24636,2.38793c0.68956,0.4492 1.43005,0.96395 1.79596,1.70109c0.71386,1.43806 -0.03501,3.47556 0.96841,4.72885c0.07764,0.09697 0.16243,0.18556 0.25328,0.26606z" data-paper-data="{&quot;noHover&quot;:false,&quot;origItem&quot;:[&quot;Path&quot;,{&quot;applyMatrix&quot;:true,&quot;selected&quot;:true,&quot;segments&quot;:[[[289.9239,222.54154],[0.16877,0.10842],[-2.18128,-1.40134],7],[[286.01402,215.81782],[1.83327,1.83327],[-0.93972,-0.93972],7],[[282.39478,214.14552],[1.28675,0.33232],[-5.62136,-1.45179],7],[[265.52553,215.78078],[5.37349,-0.17311],[-2.70014,-0.19477],7],[[258.75258,218.25592],[2.44534,-1.22267],[-3.28068,1.64034],7],[[251.04304,223.32532],[2.60142,-2.60142],[-1.18987,1.18987],7],[[247.42806,226.849],[1.39131,-0.94651],[-0.46162,0.31404],7],[[245.75476,226.92295],[0.50258,-0.24316],[-0.25065,0.12127],7],[[246.5015,227.2973],[-0.06011,-0.27187],[0.74472,3.36817],7],[[246.36775,238.16054],[-0.91606,-3.25319],[0.30334,1.07726],7],[[247.86925,241.16355],[-0.27143,-1.08574],[0.29292,1.17169],7],[[248.04004,244.78278],[-0.85401,-0.85401],[0.58236,0.58236],7],[[250.51051,244.81982],[-0.82145,0.05926],[0,0],7],[[253.48372,245.71416],[-1.38591,-0.89434],[3.33058,-1.75071],7],[[263.61211,240.69592],[-3.44896,1.3876],[6.86092,-2.76032],7],[[283.623,230.74859],[-6.05142,4.3605],[2.86129,-2.06177],7],[[289.24354,223.54891],[-2.77812,2.65863],[0.12984,-0.12425],7],[[290.44831,222.81742],[-0.62154,0.33929],[-0.1805,-0.07642],7]],&quot;closed&quot;:true}]}" fill="#ffa0a0" stroke="none" stroke-width="0.5"/></g></g></svg>